<?xml version="1.0" encoding="utf-8"?>
<!-- Generator: Adobe Illustrator 16.0.0, SVG Export Plug-In . SVG Version: 6.00 Build 0)  -->
<!DOCTYPE svg PUBLIC "-//W3C//DTD SVG 1.1//EN" "http://www.w3.org/Graphics/SVG/1.1/DTD/svg11.dtd">
<svg version="1.1" id="Isolation_Mode" xmlns="http://www.w3.org/2000/svg" xmlns:xlink="http://www.w3.org/1999/xlink" x="0px"
	 y="0px" width="100px" height="100px" viewBox="0 0 100 100" enable-background="new 0 0 100 100" xml:space="preserve">
<g display="none">
	<path display="inline" fill-rule="evenodd" clip-rule="evenodd" fill="#FFFFFF" d="M39.285,76.022
		c-1.482-3.094-2.884-6.012-4.281-8.931c-3.328-6.951-6.641-13.912-10.002-20.849c-0.412-0.851-0.366-1.365,0.354-2.028
		c2.091-1.926,4.097-3.941,6.337-6.118c4.761,11.597,9.444,23.009,14.188,34.566C43.689,73.779,41.559,74.864,39.285,76.022z"/>
	<path display="inline" fill-rule="evenodd" clip-rule="evenodd" fill="#FFFFFF" d="M23.72,45.825
		c4.93,10.3,9.768,20.409,14.662,30.639c-1.65,0.84-3.219,1.639-4.871,2.481c-0.247-0.401-0.465-0.719-0.647-1.054
		c-4.693-8.606-9.376-17.218-14.088-25.814c-0.383-0.697-0.395-1.142,0.234-1.713C20.557,48.957,22.028,47.466,23.72,45.825z"/>
	<path display="inline" fill-rule="evenodd" clip-rule="evenodd" fill="#FFFFFF" d="M33.745,38.575
		c6.654,3.289,13.31,6.578,20.173,9.97c-0.795,0.754-1.462,1.396-2.138,2.028c-1.241,1.165-2.506,2.306-3.721,3.496
		c-0.495,0.486-0.876,0.616-1.522,0.203c-2.766-1.771-5.573-3.477-8.355-5.224c-0.288-0.182-0.611-0.437-0.735-0.732
		c-1.331-3.165-2.625-6.345-3.931-9.52C33.594,38.723,33.669,38.649,33.745,38.575z"/>
	<path display="inline" fill-rule="evenodd" clip-rule="evenodd" fill="#FFFFFF" d="M52.482,5.202c0,0.354-0.009,0.71,0.003,1.065
		c0.018,0.616-0.259,0.822-0.876,0.77c-3.573-0.303-7.15-0.588-10.726-0.858C40.189,6.126,39.864,5.858,40,5.133
		c0.064-0.347,0.091-0.704,0.111-1.058c0.114-1.895,0.108-1.855,1.952-1.69c2.75,0.247,5.501,0.459,8.255,0.628
		C52.418,3.142,52.42,3.101,52.482,5.202z"/>
	<path display="inline" fill-rule="evenodd" clip-rule="evenodd" fill="#FFFFFF" d="M74.928,1.902
		c0.111,0.189,0.174,0.251,0.185,0.322c0.502,3.288,0.508,3.335-2.753,3.791c-3.041,0.425-6.097,0.736-9.354,1.122
		c0-1.26-0.032-2.347,0.026-3.427c0.012-0.217,0.354-0.573,0.575-0.598C67.396,2.682,71.19,2.294,74.928,1.902z"/>
	<path display="inline" fill-rule="evenodd" clip-rule="evenodd" fill="#FFFFFF" d="M46.543,55.474
		c-1.565,1.445-2.942,2.719-4.486,4.146c-1.257-3.063-2.428-5.924-3.601-8.783c0.077-0.066,0.153-0.134,0.23-0.2
		C41.25,52.215,43.815,53.793,46.543,55.474z"/>
	<path display="inline" fill-rule="evenodd" clip-rule="evenodd" fill="#FFFFFF" d="M55.28,3.174
		c1.698,1.012,3.174,1.982,4.904,0.185c0,1.374,0.051,2.351-0.037,3.317c-0.021,0.233-0.497,0.589-0.78,0.605
		c-1.063,0.061-2.134,0.001-3.201-0.005c-0.627-0.003-0.93-0.255-0.896-0.933C55.314,5.442,55.28,4.537,55.28,3.174z"/>
	<path display="inline" fill-rule="evenodd" clip-rule="evenodd" fill="#FFFFFF" d="M66.318,1.385
		c-1.012,0.109-2.022,0.308-3.031,0.306c-1.689-0.005-3.309,0.142-4.768,1.1c-0.198,0.129-0.594,0.206-0.759,0.096
		c-2.204-1.451-4.713-1.047-7.126-1.215C50.173,1.64,49.71,1.616,49.25,1.488C54.927,0.742,60.611,0.881,66.318,1.385z"/>
	<path display="inline" fill-rule="evenodd" clip-rule="evenodd" fill="#FFFFFF" d="M61.168,8.255c0-0.974,0.001-1.756,0-2.54
		c-0.002-0.789-0.035-1.579,0.015-2.364c0.013-0.192,0.297-0.366,0.455-0.547c0.133,0.117,0.385,0.238,0.38,0.352
		c-0.04,1.601-0.115,3.2-0.192,4.8C61.824,7.991,61.694,8.021,61.168,8.255z"/>
	<path display="inline" fill-rule="evenodd" clip-rule="evenodd" fill="#FFFFFF" d="M53.82,8.124
		c-0.125-0.26-0.351-0.518-0.358-0.783c-0.042-1.296-0.043-2.596-0.016-3.893c0.004-0.215,0.218-0.425,0.334-0.637
		c0.159,0.167,0.451,0.333,0.457,0.505c0.034,1.561,0.021,3.124,0.021,4.686C54.111,8.042,53.966,8.084,53.82,8.124z"/>
	<path display="inline" fill-rule="evenodd" clip-rule="evenodd" d="M69.353,43.629c-0.04,0.068-0.218,0.367-0.396,0.667
		c-0.205-0.288-0.554-0.558-0.593-0.866c-0.224-1.79-0.398-3.59-0.531-5.389c-0.02-0.271,0.253-0.565,0.392-0.851
		c0.208,0.284,0.564,0.549,0.601,0.853C69.034,39.796,69.166,41.559,69.353,43.629z"/>
	<g display="inline">
		<path fill-rule="evenodd" clip-rule="evenodd" fill="#FFFFFF" d="M25.356,44.215c-0.721,0.663-0.767,1.178-0.354,2.028
			c3.361,6.937,6.674,13.897,10.002,20.849c1.397,2.919,2.799,5.837,4.281,8.931c2.273-1.158,4.404-2.243,6.597-3.359
			c-4.744-11.558-9.428-22.97-14.188-34.566C29.453,40.273,27.447,42.289,25.356,44.215z"/>
		<path fill-rule="evenodd" clip-rule="evenodd" fill="#FFFFFF" d="M38.182,49.049c2.782,1.747,5.59,3.453,8.355,5.224
			c0.646,0.413,1.027,0.283,1.522-0.203c1.215-1.19,2.479-2.331,3.721-3.496c0.676-0.633,1.343-1.274,2.138-2.028
			c-6.863-3.392-13.519-6.681-20.173-9.97c-0.076,0.074-0.151,0.147-0.229,0.222c1.306,3.175,2.6,6.354,3.931,9.52
			C37.57,48.612,37.894,48.867,38.182,49.049z"/>
		<path fill-rule="evenodd" clip-rule="evenodd" fill="#FFFFFF" d="M33.511,78.945c1.652-0.843,3.221-1.642,4.871-2.481
			c-4.895-10.229-9.732-20.339-14.662-30.639c-1.691,1.641-3.163,3.132-4.71,4.539c-0.629,0.571-0.617,1.016-0.234,1.713
			c4.712,8.597,9.395,17.208,14.088,25.814C33.046,78.227,33.264,78.544,33.511,78.945z"/>
		<path fill-rule="evenodd" clip-rule="evenodd" fill="#FFFFFF" d="M38.456,50.836c1.173,2.859,2.344,5.72,3.601,8.783
			c1.544-1.427,2.921-2.7,4.486-4.146c-2.728-1.681-5.293-3.259-7.856-4.838C38.609,50.702,38.533,50.77,38.456,50.836z"/>
		<path fill-rule="evenodd" clip-rule="evenodd" fill="#FFFFFF" d="M66.722,98.095c0.037,0.33,0.396,0.884,0.621,0.892
			c2.081,0.069,4.166,0.04,6.375,0.04c-0.331-3.481-0.631-6.675-0.934-9.837h-7.051C66.05,92.158,66.367,95.129,66.722,98.095z"/>
		<path fill-rule="evenodd" clip-rule="evenodd" fill="#FFFFFF" d="M79.928,89.819c-0.188,0.015-0.375,0.027-0.563,0.039
			c-0.012-0.223-0.023-0.446-0.036-0.669h-3.973v-3.327h3.798c-0.473-8.987-0.945-17.978-1.418-26.967
			c0.19-0.011,0.382-0.021,0.573-0.031c0.512,8.997,0.993,17.996,1.428,26.998h1.039c-0.537-10.361-1.071-20.726-1.58-31.089
			c-0.039-0.811-0.315-1.195-1.099-1.403c-0.575-0.153-1.583-0.01-1.446-0.971c0.046-0.315,0.972-0.505,1.736-0.865
			c-0.951-14.58-1.925-29.502-2.904-44.494c-3.173,0.377-6.115,0.689-9.046,1.091c-1.38,0.189-2.729,0.583-4.105,0.813
			c-0.638,0.107-1.309,0.099-1.956,0.042c-0.532-0.047-1.052-0.245-1.741-0.417c0,0.714,0,1.141,0,1.569
			c0,3.365,0.017,6.731-0.024,10.095c-0.004,0.433-0.309,0.862-0.474,1.292c-0.18-0.415-0.511-0.828-0.518-1.245
			c-0.047-3.246-0.031-6.493-0.034-9.739c-0.001-0.583-0.001-1.167-0.001-1.796c-0.843,0-1.543-0.035-2.236,0.011
			c-0.583,0.039-1.178,0.309-1.736,0.236c-1.304-0.17-2.577-0.576-3.881-0.72c-2.515-0.278-5.042-0.448-7.566-0.649
			c-0.733-0.059-1.47-0.071-2.289-0.109c-0.077,0.923-0.152,1.708-0.21,2.493c-0.367,5.129-0.74,10.259-1.098,15.389
			c-0.296,4.263-0.583,8.527-0.837,12.791c-0.02,0.322,0.173,0.832,0.421,0.966c1.631,0.873,3.304,1.668,5.123,2.566
			c0.255-1.378,0.458-2.613,0.734-3.83c0.06-0.264,0.39-0.465,0.594-0.693c0.104,0.271,0.321,0.557,0.292,0.813
			c-0.122,1.098-0.278,2.196-0.503,3.278c-0.148,0.718,0.102,1.065,0.737,1.371c2.849,1.373,5.676,2.795,8.513,4.191
			c0.27,0.133,0.567,0.209,0.978,0.357c0.525-4.331,1.036-8.547,1.548-12.76c-0.107,0.04-0.215,0.08-0.321,0.12
			c-0.296-0.379-0.593-0.761-0.887-1.141c0.474-0.183,0.938-0.404,1.427-0.534c0.357-0.097,0.748-0.073,1.209-0.109
			c0-0.508,0-0.896,0-1.287c0-1.466-0.028-2.932,0.025-4.395c0.013-0.31,0.329-0.607,0.505-0.912
			c0.17,0.312,0.396,0.607,0.491,0.939c0.084,0.294,0.029,0.629,0.029,0.946c0.001,1.57,0.001,3.14,0.001,4.736
			c0.492,0.03,0.808,0.032,1.118,0.071c0.577,0.072,1.438-0.242,1.459,0.689c0.005,0.241-0.854,0.502-1.315,0.757
			c-0.067,0.036-0.131,0.085-0.279,0.184c0.026,0.339,0.042,0.728,0.089,1.112c0.765,6.159,1.567,12.314,2.284,18.478
			c0.634,5.46,1.169,10.931,1.749,16.396c0.543,5.121,1.084,10.243,1.629,15.364h7.081c-0.447-4.618-0.896-9.238-1.346-13.856
			c-0.524-5.392-1.057-10.783-1.575-16.176c-0.223-2.322-0.436-4.647-0.607-6.974c-0.02-0.264,0.254-0.548,0.392-0.823
			c0.174,0.258,0.451,0.495,0.503,0.777c0.136,0.736,0.178,1.491,0.249,2.238c0.509,5.275,1.011,10.55,1.521,15.824
			c0.519,5.353,1.048,10.706,1.565,16.058c0.095,0.978,0.188,1.954,0.281,2.932h0.007v0.081c0.387,4.034,0.771,8.069,1.191,12.1
			c0.029,0.283,0.494,0.734,0.768,0.743c1.966,0.064,3.936,0.034,6.082,0.034c-0.194-3.451-0.378-6.558-0.543-9.631h-1.052
			C79.907,89.399,79.918,89.61,79.928,89.819z M80.288,97.346c0.004,0.129-0.128,0.373-0.214,0.381
			c-1.207,0.117-2.415,0.204-3.623,0.297c-0.013-0.153-0.025-0.305-0.036-0.459c1.054-0.144,2.107-0.289,3.223-0.441
			c0-0.874,0.014-1.695-0.004-2.517c-0.017-0.776-0.068-1.553-0.105-2.329c0.184-0.008,0.365-0.014,0.547-0.022
			C80.15,93.951,80.229,95.646,80.288,97.346z"/>
		<path fill-rule="evenodd" clip-rule="evenodd" fill="#FFFFFF" d="M56.166,7.276c1.067,0.006,2.139,0.066,3.201,0.005
			c0.283-0.016,0.759-0.372,0.78-0.605c0.088-0.966,0.037-1.943,0.037-3.317c-1.73,1.797-3.206,0.827-4.904-0.185
			c0,1.362,0.034,2.268-0.01,3.169C55.236,7.021,55.539,7.273,56.166,7.276z"/>
		<path fill-rule="evenodd" clip-rule="evenodd" fill="#FFFFFF" d="M53.78,2.811c-0.116,0.212-0.33,0.422-0.334,0.637
			c-0.027,1.297-0.026,2.597,0.016,3.893c0.008,0.265,0.233,0.522,0.358,0.783c0.146-0.04,0.291-0.082,0.438-0.123
			c0-1.562,0.014-3.125-0.021-4.686C54.231,3.145,53.939,2.979,53.78,2.811z"/>
		<path fill-rule="evenodd" clip-rule="evenodd" fill="#FFFFFF" d="M40.111,4.075C40.091,4.429,40.064,4.786,40,5.133
			c-0.136,0.725,0.189,0.993,0.884,1.046c3.575,0.27,7.152,0.555,10.726,0.858c0.617,0.052,0.894-0.154,0.876-0.77
			c-0.012-0.355-0.003-0.71-0.003-1.065c-0.063-2.101-0.064-2.061-2.164-2.189c-2.754-0.169-5.505-0.382-8.255-0.628
			C40.22,2.22,40.226,2.18,40.111,4.075z"/>
		<path fill-rule="evenodd" clip-rule="evenodd" fill="#FFFFFF" d="M61.825,7.957c0.077-1.6,0.152-3.2,0.192-4.8
			c0.005-0.114-0.247-0.235-0.38-0.352c-0.158,0.182-0.442,0.355-0.455,0.547c-0.05,0.785-0.017,1.576-0.015,2.364
			c0.001,0.783,0,1.566,0,2.54C61.694,8.021,61.824,7.991,61.825,7.957z"/>
		<path fill-rule="evenodd" clip-rule="evenodd" fill="#FFFFFF" d="M63.031,3.709c-0.059,1.081-0.026,2.167-0.026,3.427
			c3.258-0.386,6.313-0.697,9.354-1.122c3.261-0.456,3.255-0.502,2.753-3.791c-0.011-0.07-0.073-0.133-0.185-0.322
			c-3.737,0.392-7.531,0.78-11.321,1.209C63.386,3.137,63.043,3.493,63.031,3.709z"/>
		<path fill-rule="evenodd" clip-rule="evenodd" fill="#FFFFFF" d="M50.635,1.671c2.413,0.168,4.922-0.236,7.126,1.215
			c0.165,0.109,0.561,0.033,0.759-0.096c1.459-0.958,3.078-1.105,4.768-1.1c1.009,0.002,2.02-0.197,3.031-0.306
			C60.611,0.881,54.927,0.742,49.25,1.488C49.71,1.616,50.173,1.64,50.635,1.671z"/>
	</g>
</g>
<g display="none">
	<path display="inline" fill-rule="evenodd" clip-rule="evenodd" d="M35.364,34.506c-0.76,2.783-1.521,5.566-2.281,8.351
		c-0.014,0.053-0.031,0.107-0.033,0.161c-0.383,8.189-2.405,16.123-3.769,24.159c-0.116,0.679-0.37,0.989-1.062,0.897
		c-1.437-0.188-2.908-0.24-4.302-0.595c-1.286-0.327-1.546-0.881-1.417-2.123c0.651-6.271,1.316-12.542,1.984-18.813
		c0.046-0.436,0.129-0.872,0.234-1.298c0.343-1.378,0.662-2.727,0.607-4.193c-0.043-1.122,0.493-2.253,0.622-3.396
		c0.337-2.98,0.534-5.978,0.891-8.955c0.541-4.506,1.151-9.004,1.771-13.5c0.334-2.414,1.699-4.042,3.959-4.958
		c2.321-0.94,4.63-1.911,6.934-2.891c0.476-0.202,0.949-0.452,1.345-0.775c0.235-0.193,0.313-0.575,0.471-0.867
		c0.271-0.495,0.572-0.974,0.817-1.48c0.228-0.467,0.497-0.947,0.568-1.446c0.097-0.683,0.354-1.103,1.063-1.105
		c4.131-0.009,8.262-0.01,12.393-0.003c0.744,0.001,1.067,0.414,1.093,1.157c0.013,0.365,0.096,0.8,0.312,1.073
		c0.527,0.668,1.001,1.279,1.194,2.19c0.104,0.492,0.957,0.931,1.56,1.193c1.916,0.834,3.9,1.518,5.807,2.374
		c1.223,0.549,2.437,1.191,3.494,2.001c0.6,0.46,1.088,1.292,1.264,2.042c0.591,2.511,1.174,5.043,1.474,7.6
		c0.601,5.112,0.986,10.25,1.518,15.371c0.131,1.252,0.491,2.481,0.732,3.723c0.062,0.322,0.169,0.679,0.093,0.977
		c-0.295,1.137,0.22,2.148,0.389,3.218c0.371,2.363,0.672,4.74,0.943,7.117c0.448,3.939,0.852,7.883,1.271,11.825
		c0.076,0.712,0.112,1.429,0.208,2.137c0.095,0.699-0.2,1.153-0.775,1.5c-1.202,0.723-2.536,0.872-3.896,0.896
		c-1.939,0.035-1.971,0.033-2.318-1.835c-0.947-5.086-1.874-10.176-2.788-15.268c-0.329-1.836-0.601-3.683-0.896-5.524
		c-0.021-0.135-0.059-0.279-0.032-0.409c0.396-1.988-0.434-3.78-0.898-5.63c-0.42-1.677-0.859-3.348-1.346-5.228
		c-1.192,4.415-2.52,8.589-1.328,13.056c0.242,0.91,0.131,1.913,0.213,2.87c0.046,0.532,0.055,1.098,0.249,1.582
		c1.675,4.199,3.391,8.42,3.868,12.934c0.349,3.296,0.32,6.661,0.127,9.978c-0.412,7.063-1.049,14.113-1.565,21.171
		c-0.05,0.682-0.356,0.943-0.963,1.111c-3.642,1.005-7.38,1.256-11.122,1.369c-4.986,0.15-9.977,0.144-14.933-0.533
		c-1.496-0.204-2.976-0.549-4.442-0.911c-0.302-0.074-0.709-0.49-0.741-0.786c-1.069-9.557-1.846-19.135-1.806-28.759
		c0.015-3.453,1.033-6.729,2.091-9.98c0.333-1.021,0.675-2.041,1.075-3.036c0.748-1.856,1.422-3.665,1.324-5.775
		c-0.087-1.841,0.522-3.704,0.556-5.563C37.217,39.988,36.179,37.252,35.364,34.506z M32.97,14.409
		c0.078-0.002,0.156-0.004,0.232-0.006c0.023,0.521,0.075,1.042,0.064,1.562c-0.083,4.513,0.578,8.949,1.492,13.344
		c0.683,3.281,1.54,6.526,2.381,9.771c0.665,2.559,0.677,5.1,0.183,7.686c-0.21,1.095-0.183,2.233-0.283,3.352
		c-0.046,0.511-0.062,1.047-0.231,1.521c-0.598,1.655-1.299,3.273-1.882,4.934c-1.569,4.472-2.646,9.027-2.366,13.823
		c0.194,3.354,0.234,6.718,0.478,10.067c0.364,5.023,0.853,10.038,1.266,15.059c0.046,0.56,0.271,0.855,0.806,0.957
		c1.319,0.249,2.631,0.557,3.959,0.75c4.423,0.644,8.88,0.669,13.335,0.604c3.903-0.06,7.796-0.301,11.626-1.142
		c1.57-0.345,1.622-0.337,1.728-1.782c0.539-7.385,1.099-14.77,1.546-22.161c0.182-2.989,0.296-6.002-0.282-8.979
		c-0.743-3.824-1.982-7.497-3.448-11.096c-0.416-1.023-0.79-1.995-0.624-3.166c0.112-0.788-0.093-1.638-0.243-2.443
		c-0.422-2.268-0.646-4.548-0.121-6.81c0.609-2.624,1.461-5.197,2.006-7.833c1.082-5.225,2.19-10.455,2.059-15.845
		c-0.022-0.878,0.101-1.761,0.156-2.642c0.057,0.002,0.113,0.004,0.169,0.006c0,1.301,0,2.601,0,3.9
		c0.783-1.871,1.421-3.762,1.976-5.679c0.061-0.208-0.296-0.69-0.566-0.819c-2.06-0.978-4.141-1.914-6.228-2.833
		c-0.743-0.328-1.523-0.573-2.263-0.847c-2.511,3.368-5.847,4.832-9.903,4.834c-4.087,0.002-7.438-1.492-9.998-4.95
		C37.383,8.689,34.752,9.798,32.163,11c-1.365,0.635-1.332,0.708-0.861,2.154c0.042,0.131,0.068,0.267,0.111,0.397
		c0.442,1.344,0.886,2.688,1.329,4.031c0.076-0.01,0.151-0.021,0.228-0.03C32.97,16.504,32.97,15.457,32.97,14.409z M71.133,66.905
		c2.04-0.33,3.942-0.637,5.899-0.954c-0.018-0.246-0.035-0.602-0.07-0.954c-0.471-4.518-0.93-9.035-1.421-13.55
		c-0.309-2.838-0.392-5.716-1.377-8.446c-0.073-0.199-0.114-0.451-0.06-0.648c0.321-1.149-0.027-2.23-0.268-3.333
		c-0.237-1.1-0.477-2.209-0.587-3.326c-0.525-5.257-0.926-10.529-1.541-15.775c-0.26-2.224-0.915-4.405-1.442-6.592
		c-0.104-0.432-0.452-0.806-0.802-1.403c-0.581,1.778-1.105,3.277-1.558,4.798c-0.373,1.256-0.744,2.523-0.967,3.811
		c-0.528,3.059-0.862,6.155-1.479,9.196c-0.44,2.175-0.628,4.272,0.046,6.419c0.428,1.363,0.758,2.758,1.136,4.137
		c0.254,0.928,0.825,1.896,0.706,2.771c-0.226,1.661,0.307,3.154,0.542,4.714c0.564,3.724,1.114,7.449,1.737,11.164
		C70.082,61.64,70.643,64.328,71.133,66.905z M22.959,65.936c2.032,0.34,3.908,0.653,5.855,0.979
		c-0.005,0.019,0.062-0.157,0.096-0.34c0.821-4.41,1.748-8.804,2.424-13.235c0.52-3.401,1.355-6.776,1.239-10.261
		c-0.01-0.266,0.089-0.541,0.158-0.806c0.699-2.659,1.444-5.31,2.08-7.985c0.185-0.774,0.177-1.641,0.055-2.434
		c-0.326-2.116-0.757-4.217-1.156-6.322c-0.596-3.146-0.506-6.417-1.809-9.441c-0.548-1.271-0.9-2.625-1.354-3.979
		c-0.752,0.695-1.185,1.337-1.433,3.069c-0.72,5.038-1.35,10.088-1.971,15.139c-0.33,2.675-0.523,5.368-0.867,8.04
		c-0.181,1.408-0.771,2.769-0.407,4.233c0.041,0.168-0.078,0.371-0.112,0.56c-0.371,2-0.84,3.987-1.09,6
		c-0.493,3.986-0.875,7.985-1.284,11.981C23.214,62.773,23.092,64.416,22.959,65.936z M43.478,2.492
		c-0.287,0.646-0.465,1.407-0.904,1.958c-0.962,1.206-1.023,1.444,0.015,2.57c0.239,0.261,0.511,0.499,0.788,0.72
		c2.557,2.032,5.496,2.489,8.628,2.009c2.362-0.361,4.357-1.414,5.864-3.323c0.418-0.529,0.426-1.068-0.037-1.471
		c-0.798-0.694-1.257-1.483-1.151-2.559c0.002-0.02-0.083-0.047-0.13-0.07c-0.455,1.041-1.227,1.807-2.377,2.203
		c-2.68,0.924-5.396,0.941-8.089,0.094C44.911,4.254,43.884,3.609,43.478,2.492z M40.473,7.478
		c4.231,6.304,15.074,6.091,18.98,0.035c-0.357-0.28-0.719-0.562-1.077-0.841c-4.449,5.023-12.75,4.685-16.71,0.042
		C41.287,6.957,40.902,7.203,40.473,7.478z M56.049,2.26c-0.525-0.068-0.972-0.173-1.419-0.176c-3.054-0.016-6.107-0.012-9.16-0.006
		c-0.33,0-0.663,0.02-0.986,0.076c-0.48,0.081-0.66,0.379-0.279,0.731c0.497,0.46,1.015,0.991,1.626,1.222
		c2.637,0.996,5.334,0.967,8.009,0.136C54.788,3.947,55.588,3.375,56.049,2.26z M71.867,67.479c1.573,0.15,3.119,0.147,4.496-0.806
		C74.786,66.501,73.278,66.719,71.867,67.479z M23.584,66.549c0.856,0.903,3.5,1.328,4.595,0.852
		C26.747,66.717,25.292,66.565,23.584,66.549z"/>
	<path display="inline" fill-rule="evenodd" clip-rule="evenodd" fill="#FFFFFF" d="M71.133,66.905
		c-0.49-2.577-1.051-5.266-1.505-7.973c-0.623-3.715-1.173-7.44-1.737-11.164c-0.235-1.56-0.768-3.053-0.542-4.714
		c0.119-0.876-0.452-1.844-0.706-2.771c-0.378-1.379-0.708-2.773-1.136-4.137c-0.674-2.146-0.486-4.244-0.046-6.419
		c0.617-3.041,0.951-6.137,1.479-9.196c0.223-1.288,0.594-2.555,0.967-3.811c0.452-1.521,0.977-3.02,1.558-4.798
		c0.35,0.597,0.697,0.971,0.802,1.403c0.527,2.187,1.183,4.368,1.442,6.592c0.615,5.246,1.016,10.519,1.541,15.775
		c0.11,1.117,0.35,2.227,0.587,3.326c0.24,1.103,0.589,2.184,0.268,3.333c-0.055,0.197-0.014,0.449,0.06,0.648
		c0.985,2.73,1.068,5.608,1.377,8.446c0.491,4.515,0.95,9.032,1.421,13.55c0.035,0.353,0.053,0.708,0.07,0.954
		C75.075,66.269,73.173,66.575,71.133,66.905z"/>
	<path display="inline" fill-rule="evenodd" clip-rule="evenodd" fill="#FFFFFF" d="M22.959,65.936
		c0.133-1.52,0.255-3.162,0.424-4.8c0.409-3.996,0.791-7.995,1.284-11.981c0.25-2.013,0.719-4,1.09-6
		c0.034-0.188,0.153-0.392,0.112-0.56c-0.363-1.465,0.227-2.825,0.407-4.233c0.344-2.672,0.537-5.365,0.867-8.04
		c0.621-5.051,1.251-10.101,1.971-15.139c0.248-1.731,0.681-2.374,1.433-3.069c0.454,1.354,0.807,2.708,1.354,3.979
		c1.303,3.023,1.213,6.294,1.809,9.441c0.399,2.105,0.83,4.206,1.156,6.322c0.122,0.793,0.13,1.659-0.055,2.434
		c-0.636,2.676-1.381,5.326-2.08,7.985c-0.069,0.265-0.168,0.54-0.158,0.806c0.116,3.484-0.72,6.859-1.239,10.261
		c-0.676,4.432-1.603,8.825-2.424,13.235c-0.034,0.183-0.101,0.358-0.096,0.34C26.867,66.589,24.991,66.275,22.959,65.936z"/>
	<path display="inline" fill-rule="evenodd" clip-rule="evenodd" fill="#FFFFFF" d="M43.478,2.492
		c0.406,1.117,1.434,1.763,2.606,2.132c2.693,0.848,5.409,0.83,8.089-0.094c1.15-0.396,1.922-1.163,2.378-2.204
		c0.046,0.023,0.131,0.051,0.129,0.071c-0.105,1.075,0.354,1.865,1.151,2.559c0.463,0.403,0.455,0.942,0.037,1.471
		c-1.507,1.909-3.502,2.961-5.864,3.323c-3.132,0.48-6.071,0.023-8.628-2.009c-0.277-0.221-0.549-0.459-0.788-0.72
		c-1.038-1.126-0.977-1.364-0.015-2.57C43.013,3.898,43.19,3.137,43.478,2.492z"/>
	<path display="inline" fill-rule="evenodd" clip-rule="evenodd" fill="#FFFFFF" d="M40.473,7.478
		c0.43-0.275,0.814-0.521,1.193-0.765c3.96,4.643,12.261,4.981,16.71-0.042c0.358,0.28,0.72,0.561,1.077,0.841
		C55.547,13.569,44.704,13.782,40.473,7.478z"/>
	<path display="inline" fill-rule="evenodd" clip-rule="evenodd" fill="#FFFFFF" d="M56.049,2.26
		c-0.461,1.115-1.261,1.687-2.21,1.983c-2.675,0.831-5.372,0.86-8.009-0.136c-0.611-0.23-1.129-0.761-1.626-1.222
		c-0.381-0.353-0.201-0.65,0.279-0.731c0.323-0.056,0.656-0.076,0.986-0.076c3.053-0.005,6.106-0.009,9.16,0.006
		C55.077,2.086,55.523,2.191,56.049,2.26z"/>
	<path display="inline" fill-rule="evenodd" clip-rule="evenodd" fill="#FFFFFF" d="M71.867,67.479
		c1.411-0.761,2.919-0.979,4.496-0.806C74.986,67.627,73.44,67.63,71.867,67.479z"/>
	<path display="inline" fill-rule="evenodd" clip-rule="evenodd" fill="#FFFFFF" d="M23.584,66.549
		c1.708,0.017,3.163,0.168,4.595,0.852C27.084,67.877,24.44,67.452,23.584,66.549z"/>
	<path display="inline" fill-rule="evenodd" clip-rule="evenodd" fill="#FFFFFF" d="M68.948,12.16
		c0.061-0.208-0.296-0.69-0.566-0.819c-2.06-0.978-4.141-1.914-6.228-2.833c-0.743-0.328-1.523-0.573-2.263-0.847
		c-2.511,3.368-5.847,4.832-9.903,4.834c-4.087,0.002-7.438-1.492-9.998-4.95C37.383,8.689,34.752,9.798,32.163,11
		c-1.365,0.635-1.332,0.708-0.861,2.154c0.042,0.131,0.068,0.267,0.111,0.397c0.442,1.344,0.886,2.688,1.329,4.031
		c0.076-0.01,0.151-0.021,0.228-0.03c0-1.048,0-2.095,0-3.143c0.078-0.002,0.156-0.004,0.232-0.006
		c0.023,0.521,0.075,1.042,0.064,1.562c-0.083,4.513,0.578,8.949,1.492,13.344c0.683,3.281,1.54,6.526,2.381,9.771
		c0.665,2.559,0.677,5.1,0.183,7.686c-0.21,1.095-0.183,2.233-0.283,3.352c-0.046,0.511-0.062,1.047-0.231,1.521
		c-0.598,1.655-1.299,3.273-1.882,4.934c-1.569,4.472-2.646,9.027-2.366,13.823c0.194,3.354,0.234,6.718,0.478,10.067
		c0.364,5.023,0.853,10.038,1.266,15.059c0.046,0.56,0.271,0.855,0.806,0.957c1.319,0.249,2.631,0.557,3.959,0.75
		c4.423,0.644,8.88,0.669,13.335,0.604c3.903-0.06,7.796-0.301,11.626-1.142c1.57-0.345,1.622-0.337,1.728-1.782
		c0.539-7.385,1.099-14.77,1.546-22.161c0.182-2.989,0.296-6.002-0.282-8.979c-0.743-3.824-1.982-7.497-3.448-11.096
		c-0.416-1.023-0.79-1.995-0.624-3.166c0.112-0.788-0.093-1.638-0.243-2.443c-0.422-2.268-0.646-4.548-0.121-6.81
		c0.609-2.624,1.461-5.197,2.006-7.833c1.082-5.225,2.19-10.455,2.059-15.845c-0.022-0.878,0.101-1.761,0.156-2.642
		c0.057,0.002,0.113,0.004,0.169,0.006c0,1.301,0,2.601,0,3.9C67.756,15.968,68.394,14.077,68.948,12.16z M42.729,38.422
		c0.11,0.863,0.206,1.7,0.286,2.488c0.046,0.454-0.285,0.859-0.74,0.905c-0.027,0.003-0.056,0.005-0.083,0.005
		c-0.419,0-0.779-0.318-0.821-0.745c-0.078-0.772-0.173-1.595-0.281-2.444c-0.058-0.452,0.263-0.866,0.715-0.924
		C42.259,37.647,42.671,37.969,42.729,38.422z M41.569,31.02c0.151,0.838,0.295,1.664,0.427,2.459
		c0.074,0.45-0.229,0.876-0.681,0.951c-0.045,0.007-0.091,0.011-0.136,0.011c-0.397,0-0.748-0.287-0.814-0.691
		c-0.13-0.786-0.273-1.605-0.423-2.435c-0.081-0.449,0.217-0.879,0.666-0.96C41.059,30.272,41.488,30.571,41.569,31.02z
		 M39.1,23.051c0.443-0.102,0.889,0.176,0.99,0.621c0.002,0.01,0.217,0.949,0.528,2.451c0.093,0.446-0.194,0.885-0.643,0.977
		c-0.056,0.012-0.112,0.017-0.168,0.017c-0.384,0-0.728-0.269-0.809-0.658c-0.308-1.485-0.519-2.41-0.521-2.418
		C38.376,23.595,38.655,23.152,39.1,23.051z M36.487,77.628c0.143-0.668,0.316-1.488,0.514-2.43c0.094-0.446,0.531-0.734,0.979-0.64
		c0.447,0.093,0.733,0.531,0.64,0.979c-0.197,0.943-0.372,1.768-0.516,2.437c-0.083,0.388-0.427,0.654-0.808,0.654
		c-0.058,0-0.116-0.006-0.174-0.019C36.676,78.514,36.392,78.074,36.487,77.628z M36.468,85.255l-0.188-2.473
		c-0.035-0.456,0.306-0.853,0.761-0.888c0.459-0.033,0.853,0.307,0.888,0.762l0.188,2.473c0.035,0.454-0.306,0.853-0.762,0.888
		c-0.021,0.001-0.042,0.002-0.063,0.002C36.863,86.019,36.501,85.688,36.468,85.255z M37.923,93.433
		c-0.022,0.003-0.044,0.004-0.064,0.004c-0.428,0-0.79-0.331-0.824-0.764L36.847,90.2c-0.035-0.456,0.305-0.854,0.761-0.888
		c0.456-0.033,0.853,0.307,0.887,0.762l0.188,2.473C38.719,93.001,38.377,93.398,37.923,93.433z M40.099,68.218
		c-0.163,0.838-0.324,1.655-0.481,2.441c-0.078,0.393-0.424,0.665-0.811,0.665c-0.054,0-0.107-0.006-0.162-0.017
		c-0.448-0.089-0.738-0.524-0.648-0.973c0.157-0.783,0.317-1.598,0.48-2.434c0.086-0.447,0.521-0.74,0.969-0.653
		S40.186,67.769,40.099,68.218z M41.46,60.872c-0.144,0.817-0.29,1.638-0.438,2.453c-0.072,0.398-0.42,0.678-0.812,0.678
		c-0.05,0-0.1-0.004-0.149-0.014c-0.449-0.081-0.747-0.512-0.665-0.962c0.147-0.811,0.293-1.627,0.436-2.439
		c0.078-0.45,0.508-0.751,0.956-0.673C41.237,59.994,41.538,60.423,41.46,60.872z M42.631,53.48
		c-0.106,0.775-0.229,1.606-0.361,2.471c-0.063,0.409-0.415,0.702-0.815,0.702c-0.042,0-0.084-0.003-0.126-0.011
		c-0.452-0.068-0.762-0.49-0.692-0.941c0.132-0.856,0.252-1.68,0.357-2.447c0.063-0.451,0.479-0.769,0.932-0.705
		C42.377,52.611,42.692,53.028,42.631,53.48z M43.195,48.495c-0.035,0.434-0.396,0.762-0.822,0.762
		c-0.022,0-0.045-0.001-0.067-0.003c-0.455-0.036-0.795-0.435-0.759-0.889c0.074-0.933,0.112-1.746,0.114-2.419
		c0.001-0.456,0.37-0.826,0.826-0.826h0.001c0.457,0.001,0.826,0.373,0.826,0.829C43.312,46.665,43.272,47.521,43.195,48.495z
		 M59.668,26.123c0.312-1.502,0.525-2.441,0.529-2.451c0.101-0.445,0.545-0.723,0.988-0.621c0.445,0.101,0.724,0.544,0.622,0.99
		c-0.002,0.008-0.212,0.933-0.521,2.418c-0.081,0.39-0.425,0.658-0.808,0.658c-0.057,0-0.113-0.005-0.17-0.017
		C59.863,27.007,59.575,26.569,59.668,26.123z M58.29,33.479c0.133-0.795,0.275-1.621,0.428-2.459
		c0.081-0.448,0.512-0.747,0.96-0.665c0.45,0.081,0.748,0.511,0.667,0.96c-0.151,0.829-0.293,1.648-0.424,2.435
		c-0.067,0.404-0.417,0.691-0.814,0.691c-0.045,0-0.09-0.004-0.137-0.011C58.521,34.354,58.215,33.929,58.29,33.479z M57.558,38.422
		c0.057-0.453,0.469-0.774,0.925-0.715c0.453,0.058,0.773,0.472,0.715,0.924c-0.108,0.85-0.203,1.672-0.281,2.444
		c-0.043,0.427-0.401,0.745-0.821,0.745c-0.027,0-0.056-0.002-0.084-0.005c-0.454-0.046-0.784-0.451-0.739-0.905
		C57.351,40.122,57.447,39.285,57.558,38.422z M57.092,48.495c-0.078-0.974-0.117-1.83-0.119-2.546
		c-0.001-0.456,0.368-0.828,0.825-0.829c0,0,0,0,0.001,0c0.456,0,0.826,0.37,0.827,0.826c0.001,0.673,0.04,1.486,0.113,2.419
		c0.036,0.454-0.304,0.853-0.759,0.889c-0.022,0.002-0.044,0.003-0.066,0.003C57.487,49.257,57.125,48.929,57.092,48.495z
		 M58.016,55.951c-0.132-0.864-0.253-1.695-0.359-2.471c-0.063-0.452,0.253-0.869,0.705-0.932c0.454-0.063,0.869,0.254,0.932,0.705
		c0.105,0.768,0.226,1.591,0.357,2.447c0.069,0.451-0.24,0.873-0.692,0.941c-0.042,0.008-0.084,0.011-0.126,0.011
		C58.431,56.653,58.079,56.36,58.016,55.951z M59.265,63.325c-0.148-0.815-0.296-1.636-0.438-2.453
		c-0.079-0.449,0.222-0.878,0.672-0.957c0.449-0.078,0.878,0.223,0.956,0.673c0.142,0.813,0.288,1.629,0.436,2.439
		c0.082,0.45-0.216,0.881-0.664,0.962c-0.051,0.01-0.101,0.014-0.149,0.014C59.686,64.003,59.338,63.724,59.265,63.325z
		 M63.251,92.673c-0.033,0.433-0.395,0.764-0.822,0.764c-0.021,0-0.043-0.001-0.064-0.004c-0.455-0.034-0.796-0.432-0.762-0.886
		l0.189-2.473c0.035-0.455,0.434-0.797,0.887-0.762c0.455,0.034,0.797,0.432,0.762,0.888L63.251,92.673z M63.818,85.255
		c-0.034,0.434-0.396,0.764-0.823,0.764c-0.021,0-0.042-0.001-0.064-0.002c-0.455-0.035-0.796-0.434-0.76-0.888l0.188-2.473
		c0.035-0.455,0.429-0.795,0.887-0.762c0.456,0.035,0.797,0.432,0.762,0.888L63.818,85.255z M63.284,75.198
		c0.197,0.941,0.372,1.762,0.516,2.43c0.096,0.446-0.188,0.886-0.636,0.981c-0.059,0.013-0.116,0.019-0.173,0.019
		c-0.383,0-0.725-0.267-0.809-0.654c-0.143-0.669-0.317-1.493-0.516-2.437c-0.094-0.447,0.192-0.886,0.64-0.979
		C62.755,74.465,63.192,74.752,63.284,75.198z M62.29,70.335c0.09,0.448-0.201,0.884-0.648,0.973
		c-0.055,0.011-0.109,0.017-0.163,0.017c-0.386,0-0.73-0.272-0.81-0.665c-0.157-0.786-0.318-1.604-0.481-2.441
		c-0.088-0.449,0.205-0.883,0.654-0.97c0.448-0.087,0.881,0.206,0.969,0.653C61.973,68.737,62.134,69.552,62.29,70.335z"/>
</g>
<g display="none">
	<path display="inline" fill-rule="evenodd" clip-rule="evenodd" d="M89.66,63.476c0.834-0.754,1.498-1.467,2.348-0.381
		c0.422-0.297,0.789-0.554,1.219-0.855c0.215,0.144,0.473,0.253,0.646,0.439c1.688,1.799,3.35,3.62,5.043,5.412
		c0.518,0.547,0.541,0.96-0.059,1.465c-3.139,2.653-6.266,5.32-9.379,8.003c-0.566,0.485-0.959,0.443-1.516-0.056
		c-9.639-8.67-19.299-17.323-28.957-25.974c-0.563-0.506-1.162-0.974-1.744-1.458c-0.16,0.036-0.322,0.073-0.48,0.108
		c0,1.798,0.152,3.611-0.027,5.39c-0.721,7.07,0.74,13.937,1.795,20.845c0.193,1.259,0.453,2.513,0.531,3.779
		c0.027,0.44-0.271,1.101-0.633,1.336c-2.633,1.72-5.293,3.396-7.994,5.005c-2.41,1.436-5.189,1.297-7.842,1.531
		c-5.328,0.473-10.645,0.181-15.967-0.401c-3.609-0.396-6.414-2.185-9.117-4.326c-3.611-2.862-3.549-2.858-2.813-7.375
		c0.719-4.411,1.395-3.126-2.441-5.469C8.809,68.377,5.318,66.3,1.814,64.249c-0.807-0.472-1.127-1.027-1.119-1.973
		c0.039-5.617,0-11.235,0.045-16.853c0.006-0.631,0.244-1.338,0.586-1.877c4.547-7.167,9.119-14.317,13.727-21.445
		c0.336-0.517,0.936-0.987,1.514-1.198c2.607-0.95,5.244-1.824,7.891-2.669c0.807-0.258,1.275-0.645,1.559-1.498
		c0.809-2.429,2.461-3.853,5.057-4.437c3.781-0.851,7.477-0.792,11.215,0.131c2.184,0.539,3.668,1.835,4.389,3.906
		c0.346,0.992,0.934,1.447,1.867,1.743c2.908,0.92,5.807,1.868,8.688,2.873c0.553,0.194,1.131,0.595,1.482,1.064
		c10.002,13.384,19.975,26.788,29.955,40.188C88.961,62.597,89.27,62.976,89.66,63.476z M38.451,87.241
		c2.98-0.261,5.869-0.294,8.668-0.812c4.01-0.742,7.137-3.345,10.371-5.629c0.27-0.191,0.406-0.805,0.352-1.187
		c-0.766-5.407-1.559-10.81-2.406-16.205c-0.063-0.398-0.619-0.7-0.865-1.097c-0.174-0.278-0.303-0.925-0.295-0.927
		c2.082-0.679,1.428-2.458,1.418-3.821c-0.047-6.623,0.285-13.219,1.152-19.784c0.045-0.339,0.344-0.645,0.525-0.965
		c0.166,0.356,0.496,0.726,0.471,1.067c-0.213,2.862-0.443,5.725-0.773,8.574c-0.133,1.141,0.068,1.949,0.986,2.745
		c7.168,6.232,14.291,12.517,21.428,18.782c0.953,0.837,1.918,1.659,2.945,2.549c1.828-1.761,3.525-3.484,5.324-5.093
		c0.91-0.813,0.904-1.383,0.18-2.351C78.439,50.407,68.99,37.692,59.529,24.987c-0.289-0.388-0.609-0.752-1.195-1.469
		c-0.105,1.26-0.184,2.102-0.244,2.944c-0.063,0.863-0.066,1.732-0.18,2.588c-0.031,0.236-0.365,0.431-0.563,0.646
		c-0.16-0.238-0.436-0.465-0.457-0.714c-0.059-0.679-0.07-1.375,0.01-2.051c0.111-0.938-0.221-1.372-1.16-1.631
		c-2.721-0.75-5.426-1.561-8.102-2.459c-0.992-0.334-1.314-0.005-1.748,0.825c-1.182,2.261-2.482,4.459-3.764,6.667
		c-0.236,0.41-0.6,0.747-1.01,1.244c-0.893-1.047-1.666-1.957-2.666-3.131C38.451,48.188,38.451,67.562,38.451,87.241z
		 M16.48,73.029c-0.203,0.976-0.387,1.755-0.527,2.541c-0.803,4.487-0.799,4.483,2.854,7.317c2.33,1.809,4.762,3.387,7.813,3.648
		c1.861,0.158,3.725,0.303,5.582,0.506c1.535,0.167,1.635,0.121,1.637-1.45c0.012-18.268,0.021-36.535,0.023-54.802
		c0.002-0.416-0.055-0.832-0.107-1.53c-0.48,0.56-0.75,0.858-1.002,1.172c-1.01,1.268-1.168,1.303-2-0.082
		c-1.313-2.188-2.607-4.393-3.756-6.669c-0.488-0.965-0.934-1.129-1.883-0.764c-1.828,0.702-3.713,1.256-5.541,1.954
		c-3.152,1.204-3.012,0.27-2.676,4.022c0.035,0.402-0.307,0.839-0.475,1.259c-0.219-0.371-0.592-0.726-0.631-1.116
		c-0.17-1.6-0.238-3.21-0.357-5.044c-0.342,0.311-0.5,0.404-0.588,0.542c-4.111,6.417-8.229,12.833-12.289,19.282
		c-0.178,0.284,0.002,1.062,0.281,1.324c1.963,1.844,3.99,3.62,6.008,5.406c1.117,0.986,2.254,1.949,3.447,2.979
		c0.49-0.552,0.836-1.046,1.279-1.421c2.791-2.348,3.418-5.26,2.854-8.797c-0.449-2.819-0.299-5.734-0.365-8.608
		c-0.008-0.307,0.326-0.621,0.5-0.933c0.199,0.266,0.436,0.512,0.584,0.804c0.098,0.19,0.078,0.445,0.086,0.673
		c0.105,2.736,0.191,5.473,0.309,8.207c0.189,4.468,0.406,8.936,0.598,13.402c0.055,1.278,0.426,2.286,1.506,3.164
		c4.357,3.543,8.609,7.212,12.945,10.778c0.922,0.757,0.984,1.307,0.244,2.231c-2.057,2.564-4.051,5.18-6.016,7.813
		c-0.582,0.78-1.068,0.787-1.803,0.241c-1.611-1.196-3.242-2.372-4.918-3.479c-1.078-0.714-1.926-1.382-0.568-2.733
		C18.502,74.249,17.582,73.694,16.48,73.029z M25.664,66.745c-7.906-6.893-15.682-13.67-23.604-20.578
		c-0.088,0.481-0.146,0.654-0.146,0.827c-0.006,5.023-0.037,10.045,0.039,15.066C1.961,62.578,2.51,63.272,3,63.57
		c5.375,3.275,10.789,6.488,16.195,9.712c0.338,0.201,0.709,0.346,1.16,0.563C22.145,71.451,23.881,69.128,25.664,66.745z
		 M36.424,25.838c-1.266,1.294-2.191,2.539-2.176,4.51c0.074,10.724,0.012,21.448,0.004,32.173
		c-0.008,7.713-0.014,15.425,0.002,23.138c0.002,0.469,0.143,1.318,0.309,1.342c0.979,0.139,2.004,0.195,2.961,0.011
		c0.232-0.045,0.379-1.105,0.379-1.699c0.037-18.757,0.035-37.514,0.094-56.27C38,27.647,37.412,26.739,36.424,25.838z
		 M20.068,76.142c2,1.417,3.828,2.714,5.744,4.071c2.033-2.648,3.949-5.125,5.826-7.633c0.16-0.212,0.195-0.79,0.047-0.917
		c-1.641-1.401-3.33-2.747-5.078-4.167C24.373,70.452,22.293,73.201,20.068,76.142z M95.67,68.834
		c-1.518-1.628-3.047-3.27-4.77-5.118c-2.486,2.747-4.83,5.34-7.264,8.031c1.381,1.32,3.037,2.906,4.691,4.49
		C90.844,73.7,93.205,71.32,95.67,68.834z M30.695,18.159c1.424,2.615,3.314,4.557,5.385,6.33c0.162,0.138,0.801-0.023,1.01-0.244
		c1.438-1.516,2.836-3.069,4.207-4.645c0.33-0.379,0.514-0.886,0.816-1.426C38.242,17.024,34.592,17.061,30.695,18.159z
		 M28.473,15.033c-1.264,1.214-1.904,2.733-1.684,4.209c0.59,3.938,2.805,7.108,4.977,10.597c1.229-1.609,2.295-3.005,3.391-4.438
		C32.248,22.334,29.096,19.589,28.473,15.033z M41.094,29.839c2.225-3.491,4.41-6.754,5.029-10.717
		c0.232-1.482-0.506-2.83-1.686-4.264c-0.703,4.71-3.807,7.496-6.734,10.544C38.801,26.836,39.869,28.234,41.094,29.839z
		 M42.654,16.857c1.047-2.053,0.59-3.078-1.646-3.534c-0.889-0.182-1.797-0.499-2.678-0.447c-2.523,0.15-5.047,0.392-7.553,0.738
		c-0.979,0.136-1.23,1.25-0.934,2.584c0.26,1.159,1.002,0.604,1.598,0.547c1.803-0.171,3.607-0.532,5.406-0.51
		C38.777,16.26,40.705,16.633,42.654,16.857z M47.357,18.862c-0.172,0.984-0.299,1.718-0.447,2.571
		c3.318,1.002,6.547,1.976,10.254,3.095c-0.303-1.139-0.305-2.386-0.73-2.555C53.535,20.834,50.547,19.924,47.357,18.862z
		 M25.432,19.123c-2.555,0.848-5.047,1.668-7.535,2.502c-1.461,0.49-1.727,1.45-0.762,2.87c2.297-0.794,4.615-1.587,6.926-2.398
		C26.24,21.332,26.141,21.596,25.432,19.123z M13.18,54.36c1.295,1.113,2.438,2.099,3.58,3.082c0.105-0.059,0.209-0.117,0.313-0.177
		c-0.109-2.189-0.221-4.379-0.33-6.568c-0.129-0.032-0.258-0.064-0.387-0.096C15.344,51.798,14.334,52.993,13.18,54.36z
		 M97.486,69.079c0.127-0.119,0.254-0.236,0.381-0.354c-1.488-1.628-2.977-3.256-4.467-4.882c-0.133,0.122-0.264,0.245-0.396,0.367
		C94.498,65.834,95.992,67.456,97.486,69.079z"/>
	<path display="inline" fill-rule="evenodd" clip-rule="evenodd" fill="#FFFFFF" d="M38.451,87.241c0-19.68,0-39.054,0-58.796
		c1,1.174,1.773,2.084,2.666,3.131c0.41-0.497,0.773-0.834,1.01-1.244c1.281-2.208,2.582-4.407,3.764-6.667
		c0.434-0.83,0.756-1.159,1.748-0.825c2.676,0.898,5.381,1.71,8.102,2.459c0.939,0.259,1.271,0.692,1.16,1.631
		c-0.08,0.676-0.068,1.372-0.01,2.051c0.021,0.25,0.297,0.477,0.457,0.714c0.197-0.215,0.531-0.41,0.563-0.646
		c0.113-0.856,0.117-1.725,0.18-2.588c0.061-0.842,0.139-1.684,0.244-2.944c0.586,0.717,0.906,1.082,1.195,1.469
		c9.461,12.706,18.91,25.42,28.402,38.103c0.725,0.968,0.73,1.537-0.18,2.351c-1.799,1.608-3.496,3.332-5.324,5.093
		c-1.027-0.89-1.992-1.712-2.945-2.549c-7.137-6.266-14.26-12.55-21.428-18.782c-0.918-0.796-1.119-1.604-0.986-2.745
		c0.33-2.85,0.561-5.712,0.773-8.574c0.025-0.342-0.305-0.711-0.471-1.067c-0.182,0.32-0.48,0.626-0.525,0.965
		c-0.867,6.565-1.199,13.161-1.152,19.784c0.01,1.363,0.664,3.143-1.418,3.821c-0.008,0.002,0.121,0.648,0.295,0.927
		c0.246,0.396,0.803,0.698,0.865,1.097c0.848,5.396,1.641,10.798,2.406,16.205c0.055,0.382-0.082,0.995-0.352,1.187
		c-3.234,2.284-6.361,4.887-10.371,5.629C44.32,86.947,41.432,86.98,38.451,87.241z M47.402,35.867
		c-1.324,0-2.648,0.026-3.971-0.009c-0.828-0.022-1.115,0.309-1.102,1.134c0.041,2.372-0.006,4.746,0.023,7.119
		c0.018,1.315,0.715,2.082,1.992,2.116c2.006,0.055,4.016,0.047,6.021,0.002c1.25-0.027,1.941-0.764,1.959-2
		c0.037-2.463,0.049-4.929-0.029-7.391c-0.012-0.332-0.582-0.896-0.928-0.925C50.053,35.804,48.725,35.869,47.402,35.867z
		 M49.525,83.694c0.074,0.113,0.148,0.228,0.223,0.341c2.109-1.237,4.191-2.527,6.342-3.688c0.934-0.504,1.021-1.144,0.832-2.027
		c-0.371-1.733-0.705-3.475-1.068-5.21c-0.443-2.105-0.904-4.206-1.357-6.31c-0.297,0.241-0.332,0.448-0.291,0.641
		c0.723,3.564,1.391,7.144,2.221,10.684c0.256,1.094-0.068,1.563-0.941,2.053C53.473,81.305,51.51,82.517,49.525,83.694z
		 M40.344,85.802c0.018,0.131,0.037,0.261,0.055,0.392c1.828-0.234,3.658-0.468,5.486-0.701c-0.018-0.127-0.035-0.254-0.053-0.381
		C44.002,85.342,42.172,85.571,40.344,85.802z"/>
	<path display="inline" fill-rule="evenodd" clip-rule="evenodd" fill="#FFFFFF" d="M16.48,73.029
		c1.102,0.665,2.021,1.22,3.047,1.84c-1.357,1.352-0.51,2.02,0.568,2.733c1.676,1.107,3.307,2.283,4.918,3.479
		c0.734,0.546,1.221,0.539,1.803-0.241c1.965-2.634,3.959-5.249,6.016-7.813c0.74-0.925,0.678-1.475-0.244-2.231
		C28.252,67.229,24,63.561,19.643,60.018c-1.08-0.878-1.451-1.886-1.506-3.164c-0.191-4.467-0.408-8.935-0.598-13.402
		c-0.117-2.734-0.203-5.471-0.309-8.207c-0.008-0.228,0.012-0.482-0.086-0.673c-0.148-0.292-0.385-0.538-0.584-0.804
		c-0.174,0.312-0.508,0.626-0.5,0.933c0.066,2.874-0.084,5.789,0.365,8.608c0.564,3.537-0.063,6.449-2.854,8.797
		c-0.443,0.375-0.789,0.869-1.279,1.421c-1.193-1.03-2.33-1.993-3.447-2.979c-2.018-1.786-4.045-3.563-6.008-5.406
		c-0.279-0.263-0.459-1.04-0.281-1.324c4.061-6.449,8.178-12.864,12.289-19.282c0.088-0.138,0.246-0.231,0.588-0.542
		c0.119,1.834,0.188,3.445,0.357,5.044c0.039,0.39,0.412,0.745,0.631,1.116c0.168-0.42,0.51-0.857,0.475-1.259
		c-0.336-3.752-0.477-2.818,2.676-4.022c1.828-0.698,3.713-1.252,5.541-1.954c0.949-0.365,1.395-0.201,1.883,0.764
		c1.148,2.276,2.443,4.482,3.756,6.669c0.832,1.385,0.99,1.35,2,0.082c0.252-0.314,0.521-0.612,1.002-1.172
		c0.053,0.698,0.109,1.114,0.107,1.53c-0.002,18.267-0.012,36.534-0.023,54.802c-0.002,1.571-0.102,1.617-1.637,1.45
		c-1.857-0.203-3.721-0.348-5.582-0.506c-3.051-0.262-5.482-1.84-7.813-3.648c-3.652-2.834-3.656-2.83-2.854-7.317
		C16.094,74.784,16.277,74.005,16.48,73.029z"/>
	<path display="inline" fill-rule="evenodd" clip-rule="evenodd" fill="#FFFFFF" d="M25.664,66.745
		c-1.783,2.383-3.52,4.706-5.309,7.101c-0.451-0.218-0.822-0.362-1.16-0.563C13.789,70.059,8.375,66.846,3,63.57
		c-0.49-0.298-1.039-0.992-1.047-1.51c-0.076-5.021-0.045-10.043-0.039-15.066c0-0.173,0.059-0.346,0.146-0.827
		C9.982,53.075,17.758,59.853,25.664,66.745z"/>
	<path display="inline" fill-rule="evenodd" clip-rule="evenodd" fill="#FFFFFF" d="M36.424,25.838
		c0.988,0.901,1.576,1.809,1.572,3.204c-0.059,18.756-0.057,37.513-0.094,56.27c0,0.594-0.146,1.654-0.379,1.699
		c-0.957,0.185-1.982,0.128-2.961-0.011c-0.166-0.023-0.307-0.873-0.309-1.342c-0.016-7.713-0.01-15.425-0.002-23.138
		c0.008-10.725,0.07-21.449-0.004-32.173C34.232,28.377,35.158,27.132,36.424,25.838z"/>
	<path display="inline" fill-rule="evenodd" clip-rule="evenodd" fill="#FFFFFF" d="M20.068,76.142
		c2.225-2.94,4.305-5.689,6.539-8.646c1.748,1.42,3.438,2.766,5.078,4.167c0.148,0.127,0.113,0.705-0.047,0.917
		c-1.877,2.508-3.793,4.984-5.826,7.633C23.896,78.855,22.068,77.559,20.068,76.142z"/>
	<path display="inline" fill-rule="evenodd" clip-rule="evenodd" fill="#FFFFFF" d="M95.67,68.834
		c-2.465,2.486-4.826,4.866-7.342,7.403c-1.654-1.584-3.311-3.17-4.691-4.49c2.434-2.691,4.777-5.284,7.264-8.031
		C92.623,65.564,94.152,67.206,95.67,68.834z"/>
	<path display="inline" fill-rule="evenodd" clip-rule="evenodd" fill="#FFFFFF" d="M30.695,18.159
		c3.896-1.098,7.547-1.134,11.418,0.015c-0.303,0.54-0.486,1.047-0.816,1.426c-1.371,1.576-2.77,3.129-4.207,4.645
		c-0.209,0.22-0.848,0.381-1.01,0.244C34.01,22.715,32.119,20.774,30.695,18.159z"/>
	<path display="inline" fill-rule="evenodd" clip-rule="evenodd" fill="#FFFFFF" d="M28.473,15.033
		c0.623,4.556,3.775,7.301,6.684,10.368c-1.096,1.433-2.162,2.828-3.391,4.438c-2.172-3.488-4.387-6.658-4.977-10.597
		C26.568,17.767,27.209,16.247,28.473,15.033z"/>
	<path display="inline" fill-rule="evenodd" clip-rule="evenodd" fill="#FFFFFF" d="M41.094,29.839
		c-1.225-1.605-2.293-3.002-3.391-4.437c2.928-3.048,6.031-5.833,6.734-10.544c1.18,1.434,1.918,2.782,1.686,4.264
		C45.504,23.084,43.318,26.348,41.094,29.839z"/>
	<path display="inline" fill-rule="evenodd" clip-rule="evenodd" fill="#FFFFFF" d="M42.654,16.857
		c-1.949-0.224-3.877-0.597-5.807-0.621c-1.799-0.022-3.604,0.339-5.406,0.51c-0.596,0.057-1.338,0.611-1.598-0.547
		c-0.297-1.335-0.045-2.449,0.934-2.584c2.506-0.346,5.029-0.588,7.553-0.738c0.881-0.052,1.789,0.265,2.678,0.447
		C43.244,13.779,43.701,14.804,42.654,16.857z"/>
	<path display="inline" fill-rule="evenodd" clip-rule="evenodd" fill="#FFFFFF" d="M47.357,18.862
		c3.189,1.062,6.178,1.973,9.076,3.112c0.426,0.168,0.428,1.416,0.73,2.555c-3.707-1.12-6.936-2.093-10.254-3.095
		C47.059,20.58,47.186,19.846,47.357,18.862z"/>
	<path display="inline" fill-rule="evenodd" clip-rule="evenodd" fill="#FFFFFF" d="M25.432,19.123
		c0.709,2.473,0.809,2.209-1.371,2.974c-2.311,0.812-4.629,1.604-6.926,2.398c-0.965-1.42-0.699-2.38,0.762-2.87
		C20.385,20.792,22.877,19.971,25.432,19.123z"/>
	<path display="inline" fill-rule="evenodd" clip-rule="evenodd" fill="#FFFFFF" d="M13.18,54.36
		c1.154-1.367,2.164-2.563,3.176-3.759c0.129,0.031,0.258,0.063,0.387,0.096c0.109,2.189,0.221,4.379,0.33,6.568
		c-0.104,0.06-0.207,0.118-0.313,0.177C15.617,56.459,14.475,55.474,13.18,54.36z"/>
	<path display="inline" fill-rule="evenodd" clip-rule="evenodd" fill="#FFFFFF" d="M97.486,69.079
		c-1.494-1.623-2.988-3.245-4.482-4.868c0.133-0.122,0.264-0.245,0.396-0.367c1.49,1.626,2.979,3.254,4.467,4.882
		C97.74,68.843,97.613,68.96,97.486,69.079z"/>
	<path display="inline" fill-rule="evenodd" clip-rule="evenodd" d="M47.402,35.868c1.322,0.001,2.65-0.064,3.967,0.046
		c0.346,0.029,0.916,0.593,0.928,0.925c0.078,2.462,0.066,4.928,0.029,7.391c-0.018,1.236-0.709,1.973-1.959,2
		c-2.006,0.045-4.016,0.053-6.021-0.002c-1.277-0.034-1.975-0.801-1.992-2.116c-0.029-2.373,0.018-4.747-0.023-7.119
		c-0.014-0.825,0.273-1.156,1.102-1.134C44.754,35.894,46.078,35.867,47.402,35.868z M47.92,38.769
		c-0.002,0.13-0.006,0.261-0.01,0.39c-0.318,0.059-0.635,0.137-0.957,0.17c-1.275,0.129-3.184-0.209-3.67,0.474
		c-0.656,0.917-0.244,2.617-0.236,3.982c0.01,1.139,0.578,1.779,1.781,1.761c0.91-0.015,1.822-0.008,2.734,0
		c4.104,0.034,4.131,0.297,4.115-4.103c-0.004-1.29,0.059-2.416-1.752-2.16c-0.156,0.022-0.336-0.111-0.506-0.172
		c0.061-0.133,0.123-0.267,0.184-0.399c0.463-0.075,0.98-0.047,1.371-0.257c0.307-0.165,0.633-0.632,0.619-0.95
		c-0.012-0.309-0.438-0.853-0.695-0.859c-2.367-0.067-4.74-0.067-7.107,0c-0.256,0.007-0.725,0.592-0.689,0.855
		c0.047,0.361,0.443,0.909,0.758,0.958c0.891,0.141,1.816,0.048,2.725,0.091C47.031,38.57,47.477,38.692,47.92,38.769z"/>
	<path display="inline" fill-rule="evenodd" clip-rule="evenodd" d="M49.525,83.694c1.984-1.178,3.947-2.39,5.959-3.518
		c0.873-0.49,1.197-0.959,0.941-2.053c-0.83-3.54-1.498-7.119-2.221-10.684c-0.041-0.192-0.006-0.399,0.291-0.641
		c0.453,2.104,0.914,4.204,1.357,6.31c0.363,1.735,0.697,3.477,1.068,5.21c0.189,0.884,0.102,1.523-0.832,2.027
		c-2.15,1.161-4.232,2.451-6.342,3.688C49.674,83.922,49.6,83.808,49.525,83.694z"/>
	<path display="inline" fill-rule="evenodd" clip-rule="evenodd" d="M40.344,85.802c1.828-0.23,3.658-0.46,5.488-0.69
		c0.018,0.127,0.035,0.254,0.053,0.381c-1.828,0.233-3.658,0.467-5.486,0.701C40.381,86.063,40.361,85.933,40.344,85.802z"/>
	<path display="inline" fill-rule="evenodd" clip-rule="evenodd" fill="#FFFFFF" d="M47.92,38.769
		c-0.443-0.076-0.889-0.198-1.336-0.22c-0.908-0.043-1.834,0.05-2.725-0.091c-0.314-0.049-0.711-0.597-0.758-0.958
		c-0.035-0.264,0.434-0.849,0.689-0.855c2.367-0.067,4.74-0.067,7.107,0c0.258,0.007,0.684,0.551,0.695,0.859
		c0.014,0.318-0.313,0.785-0.619,0.95c-0.391,0.21-0.908,0.182-1.371,0.257c-0.061,0.133-0.123,0.267-0.184,0.399
		c0.17,0.061,0.35,0.194,0.506,0.172c1.811-0.256,1.748,0.87,1.752,2.16c0.016,4.399-0.012,4.137-4.115,4.103
		c-0.912-0.008-1.824-0.015-2.734,0c-1.203,0.019-1.771-0.622-1.781-1.761c-0.008-1.365-0.42-3.065,0.236-3.982
		c0.486-0.683,2.395-0.345,3.67-0.474c0.322-0.033,0.639-0.111,0.957-0.17C47.914,39.029,47.918,38.898,47.92,38.769z"/>
</g>
<g>
	<path fill="#66164A" d="M55.339,53.352c-1.23,0-2.252-0.008-3.215-0.025c-6.605-0.114-12.458-0.679-17.891-1.724
		c-1.258-0.243-1.989-0.836-2.448-1.984c-0.886-2.224-1.897-4.455-2.875-6.612l-0.367-0.811c-0.075-0.166-0.256-0.381-0.536-0.637
		c-2.406-2.2-3.637-4.925-3.76-8.327c-0.059-1.62-0.42-3.302-0.802-4.878c-0.238-0.984-0.549-1.987-0.849-2.956
		c-0.32-1.034-0.651-2.103-0.91-3.189c-0.36-1.515-0.441-2.792-0.249-3.905c0.357-2.05,1.797-3.581,4.054-4.31
		c2.405-0.776,4.853-1.547,7.221-2.294c1.273-0.401,2.547-0.802,3.819-1.206c0.594-0.188,0.747-0.282,0.785-0.321
		c0.031-0.051,0.084-0.249,0.133-0.869c0.103-1.295,0.227-2.609,0.366-3.907c0.177-1.637,1.149-2.801,2.739-3.275
		c2.137-0.638,4.313-0.961,6.471-0.961c2.149,0,4.335,0.321,6.495,0.955c1.706,0.5,2.658,1.766,2.829,3.76
		c0.034,0.396,0.074,0.792,0.116,1.188c0.086,0.835,0.176,1.698,0.201,2.57c0.013,0.45,0.084,0.641,0.771,0.85l0.017,0.005
		c3.514,1.073,7.146,2.182,10.699,3.355c3.979,1.313,5.499,4.305,4.281,8.423c-0.799,2.7-1.592,5.577-2.425,8.798
		c-0.161,0.62-0.235,1.35-0.231,2.294c0.008,3.14-1.233,5.895-3.69,8.188c-0.283,0.266-0.542,0.624-0.709,0.986l-0.116,0.246
		c-0.877,1.891-1.783,3.844-2.56,5.795c-0.331,0.834-0.572,1.716-0.828,2.65c-0.116,0.429-0.237,0.873-0.37,1.316l-0.236,0.796
		h-0.832c-0.798,0-1.617,0.004-2.452,0.009C57.116,53.348,56.232,53.352,55.339,53.352z"/>
	<path fill="#FEC96D" d="M47.025,3.386c-1.94,0-3.903,0.292-5.834,0.868c-0.733,0.219-1.081,0.632-1.162,1.381
		c-0.138,1.277-0.259,2.57-0.359,3.844c-0.155,1.942-0.639,2.558-2.466,3.138c-1.273,0.404-2.548,0.805-3.823,1.207
		c-2.363,0.745-4.808,1.515-7.205,2.29c-1.474,0.476-2.329,1.341-2.543,2.571c-0.139,0.798-0.064,1.81,0.221,3.008
		c0.241,1.015,0.562,2.047,0.871,3.047c0.31,1.002,0.63,2.038,0.885,3.09c0.41,1.69,0.798,3.504,0.863,5.322
		c0.101,2.775,1.094,4.987,3.037,6.764c0.326,0.299,0.791,0.765,1.062,1.363l0.367,0.81c0.988,2.18,2.011,4.435,2.916,6.705
		c0.174,0.437,0.286,0.524,0.799,0.623c5.307,1.021,11.033,1.572,17.509,1.685c0.95,0.017,1.961,0.024,3.177,0.024
		c0.891,0,1.771-0.004,2.636-0.008c0.547-0.003,1.089-0.005,1.622-0.007c0.045-0.159,0.087-0.318,0.13-0.474
		c0.261-0.952,0.53-1.938,0.907-2.887c0.8-2.009,1.72-3.991,2.609-5.908l0.115-0.247c0.287-0.622,0.717-1.217,1.21-1.677
		c2.014-1.88,2.989-4.023,2.982-6.554c-0.003-1.14,0.093-2.047,0.303-2.857c0.839-3.247,1.639-6.147,2.444-8.872
		c0.871-2.945-0.032-4.749-2.843-5.676c-3.529-1.165-7.149-2.271-10.651-3.341l-0.018-0.005c-1.535-0.469-2.302-1.422-2.346-2.916
		c-0.023-0.789-0.104-1.575-0.19-2.406c-0.042-0.408-0.085-0.817-0.119-1.227c-0.106-1.234-0.571-1.618-1.237-1.813
		C50.937,3.678,48.962,3.386,47.025,3.386z"/>
	<path fill="#66164A" d="M50.229,98.69h-6.366v-1.114c0-0.399-0.002-0.798-0.004-1.192c-0.007-0.897-0.014,3.187,0.014,2.271
		c0.003-0.137,0.005-0.242,0.003-0.322c-0.068-0.007-0.154-0.015-0.263-0.021l-0.789-0.047C38.2,97.986,33.418,97.7,28.716,97.45
		c-3.787-0.2-5.938-2.526-5.754-6.222c0.074-1.495,0.202-3.002,0.325-4.459c0.064-0.772,0.13-1.544,0.188-2.316l0.041-0.538
		c0.073-0.958,0.149-1.95,0.173-2.911c0.019-0.788,0.349-1.775,1.808-1.998c7.221-1.107,14.41-3.032,21.362-4.893
		c0.891-0.239,1.782-0.478,2.675-0.715c5.291-1.405,10.466-3.216,15.381-5.377c0.155-0.068,0.301-0.122,0.487-0.191
		c0.093-0.033,0.199-0.072,0.326-0.121l1.104-0.418l0.354,1.126c0.194,0.621,0.402,1.248,0.604,1.854
		c0.459,1.379,0.932,2.805,1.277,4.25c0.742,3.113,1.192,5.508,1.459,7.765c0.339,2.879,0.478,5.809,0.612,8.644l0.03,0.658
		c0.153,3.204-2.161,5.663-5.504,5.849c-4.88,0.271-9.845,0.556-15.179,0.872c-0.098,0.006-0.185,0.013-0.259,0.019
		c-0.002,0.127-0.001,0.258,0,0.338c0.006,0.898,0.005-3.215,0.003-2.302c0,0.401-0.002,0.806-0.002,1.213V98.69z"/>
	<path fill="#FEC96D" d="M46.086,96.464h1.917c0-0.035,0-0.07,0-0.104c0.002-0.907,0.004,3.212-0.003,2.32
		c-0.006-0.725-0.011-1.407,0.448-1.936c0.499-0.575,1.214-0.617,1.906-0.659c5.336-0.317,10.304-0.603,15.188-0.874
		c2.097-0.115,3.496-1.563,3.402-3.517l-0.03-0.66c-0.133-2.796-0.271-5.688-0.601-8.488c-0.255-2.167-0.69-4.482-1.413-7.508
		c-0.322-1.353-0.76-2.671-1.224-4.065c-0.081-0.246-0.165-0.495-0.247-0.747c-4.906,2.135-10.059,3.925-15.323,5.325
		c-0.891,0.236-1.782,0.474-2.673,0.713c-6.984,1.869-14.206,3.803-21.521,4.931c-0.028,0.975-0.104,1.947-0.176,2.891l-0.04,0.534
		c-0.059,0.778-0.124,1.558-0.19,2.337c-0.121,1.438-0.247,2.926-0.319,4.383c-0.123,2.479,1.069,3.75,3.646,3.887
		c4.71,0.251,9.496,0.537,14.124,0.813l0.788,0.048c2.027,0.121,2.398,1.057,2.353,2.63c-0.025,0.877-0.02-3.268-0.013-2.35
		C46.085,96.4,46.086,96.432,46.086,96.464z"/>
	<path fill="#66164A" d="M15.034,76.227l0.438-7.049h1.047c0.456,0,0.908,0.005,1.356,0.012c0.432,0.006,0.86,0.013,1.287,0.013
		c0.573,0,1.043-0.012,1.482-0.034c4.574-0.241,9.017-1.241,12.376-2.086c3.063-0.771,6.171-1.563,9.21-2.341
		c-4.16-0.383-8.765-0.999-13.236-2.255c-2.983-0.838-5.202-1.987-6.982-3.613c-1.823-1.663-2.802-3.661-2.83-5.776
		c-0.027-2.091,0.88-4.085,2.624-5.765c0.741-0.716,1.547-1.3,2.399-1.919c0.378-0.274,0.769-0.558,1.155-0.854l1.019-0.784
		l3.361,5.972l-0.798,0.584c-0.267,0.195-0.531,0.381-0.794,0.563c-0.534,0.375-1.039,0.728-1.484,1.116
		c-0.669,0.585-0.734,0.909-0.732,1.022c0.003,0.115,0.086,0.445,0.802,1.017c1.598,1.274,3.529,1.857,5.206,2.26
		c5.122,1.229,10.832,1.919,17.969,2.175c2.646,0.094,5.346,0.119,7.957,0.142c0.863,0.007,1.726,0.015,2.59,0.025
		c0.06,0,0.12,0.001,0.182,0.001c0.132,0,0.482,0,0.646-0.069c2.613-1.1,4.935-2.146,6.878-3.817
		c0.612-0.526,1.156-1.137,1.573-1.767c0.206-0.311,0.301-0.585,0.262-0.752c-0.04-0.17-0.249-0.375-0.573-0.562
		c-0.592-0.344-1.256-0.625-1.959-0.922c-0.337-0.144-0.686-0.291-1.043-0.453l-0.871-0.393l1.738-6.247l1.088,0.326
		c3.046,0.91,6.153,2.079,7.735,5.434c1.004,2.128,0.906,4.397-0.273,6.392c-0.516,0.872-1.12,1.68-1.732,2.456
		c2.639-0.272,5.236-0.772,7.75-1.493l1.04-0.299l2.071,6.517l-1.176,0.272c-0.512,0.119-1.018,0.242-1.521,0.364
		c-1.078,0.262-2.193,0.533-3.306,0.744c-5.159,0.979-10.479,0.998-15.17,1.013c-0.739,0.003-1.517,0.151-2.19,0.419
		c-7.679,3.043-15.683,5.099-22.499,6.707c-4.148,0.979-8.849,2.09-13.467,2.87c-2.099,0.354-4.178,0.46-6.379,0.57
		c-0.962,0.048-1.957,0.099-2.953,0.171L15.034,76.227z"/>
	<path fill="#FEC96D" d="M17.564,71.413l-0.149,2.416c0.585-0.035,1.164-0.063,1.731-0.091c2.134-0.107,4.15-0.209,6.12-0.542
		c4.546-0.771,9.211-1.871,13.325-2.842c6.739-1.591,14.646-3.62,22.191-6.61c0.926-0.368,1.992-0.571,3.003-0.575
		c4.596-0.016,9.805-0.033,14.762-0.975c1.057-0.2,2.097-0.453,3.197-0.721c0.122-0.029,0.245-0.06,0.368-0.09l-0.689-2.172
		c-3.148,0.823-6.411,1.319-9.712,1.479l-2.379,0.114l1.438-1.898c0.342-0.451,0.697-0.895,1.041-1.325
		c0.779-0.974,1.517-1.895,2.108-2.895c0.804-1.358,0.864-2.847,0.175-4.308c-1.033-2.192-2.97-3.154-5.274-3.912l-0.61,2.193
		c0.041,0.017,0.082,0.034,0.121,0.052c0.769,0.325,1.494,0.632,2.206,1.044c0.892,0.517,1.438,1.183,1.627,1.98
		c0.187,0.797-0.006,1.637-0.575,2.492c-0.527,0.797-1.211,1.567-1.977,2.225c-2.188,1.883-4.677,3.009-7.466,4.182
		c-0.509,0.215-1.049,0.243-1.51,0.243c-0.069,0-0.14,0-0.208-0.001c-0.861-0.011-1.722-0.019-2.583-0.024
		c-2.626-0.023-5.342-0.047-8.017-0.144c-7.289-0.261-13.139-0.971-18.409-2.234c-1.804-0.433-4.125-1.129-6.075-2.685
		c-1.082-0.863-1.618-1.748-1.639-2.707c-0.022-0.954,0.466-1.854,1.492-2.75c0.521-0.454,1.08-0.849,1.624-1.229l-1.135-2.015
		c-0.059,0.042-0.115,0.085-0.174,0.127c-0.788,0.572-1.533,1.113-2.164,1.72c-1.289,1.242-1.96,2.671-1.94,4.132
		c0.02,1.484,0.747,2.923,2.104,4.161c1.515,1.384,3.448,2.373,6.084,3.114c5.242,1.472,10.732,2.037,15.414,2.396
		c0.809,0.063,1.636,0.116,2.436,0.167c0.382,0.024,0.764,0.049,1.146,0.074l2.507,0.167l-1.808,1.745
		c-0.429,0.413-0.86,0.563-1.188,0.646l-3.655,0.935c-3.565,0.913-7.253,1.857-10.884,2.77c-3.457,0.868-8.036,1.897-12.803,2.149
		c-0.479,0.025-0.986,0.037-1.599,0.037c-0.437,0-0.875-0.006-1.318-0.012C17.751,71.416,17.657,71.414,17.564,71.413z"/>
</g>
</svg>
