<?xml version="1.0" encoding="utf-8"?>
<!-- Generator: Adobe Illustrator 16.0.0, SVG Export Plug-In . SVG Version: 6.00 Build 0)  -->
<!DOCTYPE svg PUBLIC "-//W3C//DTD SVG 1.1//EN" "http://www.w3.org/Graphics/SVG/1.1/DTD/svg11.dtd">
<svg version="1.1" id="Isolation_Mode" xmlns="http://www.w3.org/2000/svg" xmlns:xlink="http://www.w3.org/1999/xlink" x="0px"
	 y="0px" width="100px" height="100px" viewBox="0 0 100 100" enable-background="new 0 0 100 100" xml:space="preserve">
<g display="none">
	<path display="inline" fill="#66124A" d="M94.834,5.617c-0.222-0.673-0.736-1.215-1.378-1.45l-0.005,0.011l-0.186-0.083
		C92.301,3.854,91.211,4.359,90.77,5.2c-1.181,2.003-2.327,3.171-3.63,3.683c-1.47,0.604-3.204,0.409-5.553-0.611L71.921,3.76
		c-2.483-1.075-4.983-1.208-7.258-0.35c-2.512,0.979-4.644,3.23-6.345,6.693c-3.461-1.231-7.054-1.859-10.699-1.859
		c-12.322,0-23.394,7.181-28.205,18.294L7.53,53.978c-3.251,7.509-3.307,15.852-0.161,23.497
		c3.144,7.637,9.115,13.673,16.816,17.009c4.083,1.769,8.382,2.668,12.768,2.668c12.316,0,23.374-7.157,28.173-18.23l7.73-17.858
		c0.125-0.169,0.198-0.339,0.241-0.439l3.949-9.121c1.207-2.785,1.975-5.809,2.305-9.157c0.053-0.404,0.104-0.844,0.131-1.287
		l0.006-0.704c0.012-0.237,0.025-0.469,0.031-0.713l-0.031-0.293c-0.004-0.146-0.006-0.297-0.006-0.44
		c-0.004-0.195-0.005-0.391-0.014-0.576l0.017-0.036l-0.017-0.251c-0.014-0.234-0.039-0.472-0.062-0.707
		c-0.024-0.247-0.049-0.491-0.068-0.814l-0.063-0.544c-0.036-0.319-0.068-0.625-0.125-0.932l-0.27-1.515
		c-0.093-0.384-0.169-0.801-0.247-1.222l-0.067-0.234c-0.104-0.319-0.186-0.632-0.27-0.968l-0.245-0.798l-0.01-0.003
		c-0.059-0.199-0.117-0.392-0.181-0.583l0.017-0.036l-0.269-0.739l-0.034-0.014c-0.077-0.192-0.147-0.374-0.214-0.56l0.027-0.065
		l-0.274-0.678l-0.061-0.026c-0.049-0.11-0.098-0.218-0.146-0.329c-0.051-0.117-0.103-0.234-0.153-0.352l0.005-0.013l-0.207-0.427
		c-0.125-0.261-0.249-0.52-0.386-0.779l0.022-0.049l-0.247-0.449c-0.25-0.449-0.476-0.841-0.665-1.11l-0.103-0.199
		c-0.117-0.179-0.231-0.371-0.346-0.561c-0.131-0.22-0.262-0.438-0.4-0.645l-0.207-0.273c-0.105-0.16-0.21-0.316-0.315-0.471
		l0.007-0.015l-0.346-0.479c-0.18-0.246-0.363-0.479-0.541-0.702l0.017-0.04l-0.934-1.118l0.036-0.084l-1.007-1.009l0.01-0.024
		l-0.507-0.505c-0.285-0.285-0.598-0.583-0.927-0.859l-0.108-0.236l-0.212-0.085c-0.313-0.307-0.651-0.619-0.984-0.885
		c-1.729-1.492-3.725-2.831-5.94-3.994c1.126-2.287,2.436-3.733,3.899-4.303c1.128-0.441,2.272-0.362,3.743,0.275l9.664,4.51
		c2.026,0.88,3.932,1.324,5.663,1.324h0.002c1.212,0,2.368-0.216,3.432-0.646c2.251-0.912,4.085-2.708,5.733-5.597
		C94.963,6.938,95.046,6.26,94.834,5.617z"/>
	<path display="inline" fill="#7ACBF5" d="M68.056,60.871L61.008,77.14c-4.092,9.45-13.523,15.559-24.025,15.559
		c-3.781,0-7.489-0.775-11.023-2.31C12.349,84.492,5.93,68.959,11.645,55.76l7.048-16.272L68.056,60.871z"/>
	<path display="inline" fill="#7ACBF5" d="M67.565,21.283c0.104,0.106,0.214,0.209,0.323,0.313l-0.129,0.342l0.712,0.303
		c0.096,0.116,0.196,0.231,0.303,0.352l-0.142,0.382l0.705,0.293l0.236,0.296L69.56,23.6l0.381,0.485
		c0.183,0.236,0.356,0.492,0.521,0.736l0.176,0.272c0.12,0.207,0.256,0.412,0.393,0.613c0.012,0.017,0.024,0.035,0.036,0.053
		l-0.009,0.02l0.263,0.449c0.098,0.166,0.205,0.329,0.311,0.489c0.114,0.176,0.23,0.349,0.336,0.566l0.215,0.437
		c0.063,0.12,0.124,0.241,0.183,0.358l-0.012,0.02l0.313,0.7l0.027,0.014c0.112,0.25,0.218,0.518,0.324,0.781l0.159,0.4
		c0.059,0.15,0.117,0.3,0.17,0.446l-0.014,0.033l0.261,0.71l0.031,0.013c0.062,0.156,0.119,0.313,0.169,0.476l-0.022,0.049
		l0.222,0.704l0.047,0.02c0.034,0.134,0.063,0.264,0.092,0.397l0.015,0.065l-0.014,0.029l0.201,0.749l0.02,0.01
		c0.029,0.12,0.055,0.244,0.084,0.368l0.019,0.088l-0.019,0.042l0.083,0.343c0.088,0.374,0.146,0.723,0.185,1.113l0.159,1.072
		l-0.264,0.704l0.358,0.159c0.005,0.202,0.007,0.4,0.008,0.603l0.041,1.189l-0.018,0.064l0.003,0.226
		c0.003,0.371,0.008,0.735,0,1.11c-0.168,3.075-0.876,6.079-2.107,8.923l-3.064,7.069L20.506,35.412l3.062-7.076
		c4.094-9.45,13.526-15.559,24.03-15.559c3.777,0,7.484,0.777,11.022,2.309c2.602,1.129,4.931,2.559,6.909,4.24l0.225,0.195
		c0.229,0.202,0.472,0.412,0.706,0.648l0.135,0.12c0.117,0.12,0.238,0.237,0.362,0.355l-0.109,0.306L67.565,21.283z"/>
	<path display="inline" fill="#66124A" d="M57.187,22.041c0.284,0.61,0.305,1.295,0.054,1.871l-6.559,15.142
		c-0.354,0.818-1.212,1.365-2.136,1.365c-0.293,0-0.571-0.056-0.826-0.169c-0.532-0.225-0.969-0.688-1.197-1.265
		c-0.226-0.566-0.225-1.198,0.004-1.729l6.561-15.145c0.434-1,1.646-1.579,2.704-1.295C56.405,20.997,56.906,21.44,57.187,22.041z"
		/>
</g>
<g display="none">
	<path display="inline" fill="#66124A" d="M68.823,2.116h-6.275c0,14.218-12.544,20.075-12.544,20.075S37.455,16.334,37.455,2.116
		h-6.271l3.344,38.058c0,0-18.399,37.635-15.058,57.71h30.533h30.524c3.349-20.075-15.054-57.71-15.054-57.71L68.823,2.116
		L68.823,2.116z"/>
	<path display="inline" fill="#FFC86B" d="M65.557,5.11l-3.06,34.803l-0.076,0.827l0.366,0.75
		c0.172,0.351,16.462,33.959,15.083,53.402H50.004h-27.87c-1.379-19.443,14.912-53.052,15.083-53.406l0.364-0.746l-0.072-0.827
		L34.45,5.11h0.179c1.56,13.776,13.561,19.538,14.107,19.795l1.268,0.588l1.264-0.591c0.547-0.254,12.548-6.016,14.107-19.795
		L65.557,5.11"/>
	<rect x="48.507" y="29.324" display="inline" fill="#66124A" width="2.99" height="5.425"/>
	<rect x="48.507" y="38.621" display="inline" fill="#66124A" width="2.99" height="5.421"/>
	<rect x="48.507" y="47.914" display="inline" fill="#66124A" width="2.99" height="5.421"/>
	<rect x="48.507" y="57.21" display="inline" fill="#66124A" width="2.99" height="5.418"/>
</g>
<g display="none">
	<path display="inline" d="M73.748,54.125H62.304c-1.037,0-1.878,0.845-1.878,1.883c0,1.039,0.841,1.88,1.878,1.88h11.444
		c1.038,0,1.878-0.841,1.878-1.88C75.626,54.97,74.786,54.125,73.748,54.125z"/>
	<path display="inline" fill="#66124A" d="M92.192,72.335h-4.26V41.931h1.605c2.956,0,5.375-2.404,5.375-5.372v-9.587
		c0-2.97-2.419-5.374-5.375-5.374h-1.605c-0.033-2.936-2.427-5.313-5.361-5.313H12.269c-2.973,0-5.376,2.419-5.376,5.376v20.209
		c0,2.659,1.939,4.869,4.482,5.278v6.506c0,1.039,0.84,1.88,1.881,1.88h4.213v7.658c0,1.038,0.84,1.877,1.877,1.877
		c1.042,0,1.882-0.839,1.882-1.877v-7.658h4.209c1.04,0,1.88-0.841,1.88-1.88V47.25h20.805v25.085H7.818
		c-2.955,0-5.376,2.419-5.376,5.381v4.12c0,1.042,0.854,1.88,1.88,1.88h91.355c1.041,0,1.88-0.838,1.88-1.88v-4.12
		C97.558,74.754,95.153,72.335,92.192,72.335z"/>
	<path display="inline" fill="#7ACBF5" d="M51.878,20.041h30.689c0.891,0,1.604,0.727,1.604,1.616v4.125c0,0.034,0,0.072,0,0.11
		v46.442H51.878V20.041z"/>
	<path display="inline" fill="#66124A" d="M73.748,61.309H62.304c-1.037,0-1.878,0.841-1.878,1.88c0,1.041,0.841,1.88,1.878,1.88
		h11.444c1.038,0,1.878-0.839,1.878-1.88C75.626,62.149,74.786,61.309,73.748,61.309z"/>
	<path display="inline" fill="#66124A" d="M68.032,43.163c4.084,0,7.406-3.322,7.406-7.408c0-4.084-3.322-7.405-7.406-7.405
		s-7.403,3.321-7.403,7.405C60.629,39.841,63.948,43.163,68.032,43.163z"/>
	<path display="inline" fill="#7ACBF5" d="M68.032,32.109c2.005,0,3.646,1.643,3.646,3.646c0,2.006-1.642,3.648-3.646,3.648
		c-2.015,0-3.646-1.643-3.646-3.648C64.387,33.752,66.016,32.109,68.032,32.109z"/>
	<path display="inline" fill="#7ACBF5" d="M87.933,25.354h1.605c0.89,0,1.617,0.729,1.617,1.618v9.587
		c0,0.888-0.728,1.615-1.617,1.615h-1.605V25.354z"/>
	<rect x="15.136" y="47.246" display="inline" fill="#7ACBF5" width="8.421" height="4.524"/>
	<path display="inline" fill="#7ACBF5" d="M12.269,43.486c-0.894,0-1.619-0.724-1.619-1.617v-4.234h8.696
		c1.042,0,1.882-0.839,1.882-1.88c0-1.039-0.84-1.88-1.882-1.88h-8.696V21.657c0-0.89,0.726-1.616,1.619-1.616h35.853v13.834h-19.84
		c-1.04,0-1.878,0.841-1.878,1.88c0,1.041,0.838,1.88,1.878,1.88h19.84v5.852H12.269z"/>
	<path display="inline" fill="#7ACBF5" d="M93.799,79.953H6.2v-2.24c0-0.891,0.729-1.618,1.618-1.618h84.374
		c0.892,0,1.606,0.728,1.606,1.618V79.953z"/>
</g>
<g>
	<path fill="#66124A" d="M86.856,72.104l-7.585-20.1c-3.009-10.979-13.028-18.647-24.377-18.666
		c5.036-2.105,8.581-6.993,8.755-12.842l4.718,0.005c2.583,0,3.38-1.41,3.605-2.026c0.002-0.009,0.004-0.017,0.007-0.023h0.131
		l-0.108-0.065c0.48-1.488-0.45-2.799-2.691-3.853l-5.188-3.002l2.135-5.327c0.423-1.069,0.336-2.178-0.24-3.031
		c-0.648-0.961-1.732-1.459-3.1-1.29L38.647,4.92c-2.02,0.252-3.6,2.044-3.6,4.077l0.014,12.653
		c0.58,5.419,4.115,9.833,8.899,11.755c-8.422,0.351-16.021,4.747-20.417,11.925c-0.805,1.099-2.491,5.184-2.713,5.946L13.142,72.04
		c-4.362,10.573,3.822,17.795,3.896,17.86c1.989,1.733,4.088,2.315,5.87,2.536v3.479c0,1.231,1.003,2.232,2.236,2.232H74.74
		c1.233,0,2.235-1.001,2.235-2.232v-3.316c2.963-0.354,4.292-1.38,5.695-2.464l0.26-0.206
		C83.268,89.633,91.162,82.527,86.856,72.104z"/>
	<polygon fill="#FFC86B" points="29.019,57.817 31.878,52.865 47.781,52.865 47.781,57.817 	"/>
	<polygon fill="#FFC86B" points="52.263,57.813 52.263,52.865 68.331,52.865 70.992,57.813 	"/>
	<path fill="#FFC86B" d="M33.875,82.083c-0.151-2.623-1.327-4.949-3.307-6.55c-0.971-0.784-2.164-1.312-3.188-1.654V62.297h45.122
		V74.02c-0.967,0.278-2.106,0.77-3.13,1.64c-1.928,1.626-3.057,3.931-3.183,6.496c-0.138,2.76,0.912,5.509,2.979,7.637
		c0.542,0.556,1.706,1.756,3.334,2.431v1.449H27.38V92.18c1.516-0.523,2.845-1.409,3.531-2.117
		C32.941,87.971,34.049,84.991,33.875,82.083z"/>
	<path fill="#FFC86B" d="M70.654,82.372c0.063-1.308,0.634-2.479,1.605-3.299c1.042-0.881,2.517-0.95,2.507-0.95
		c1.218-0.014,2.208-1.019,2.208-2.235l-0.002-15.736c0.013-0.289-0.033-0.578-0.163-0.921l-5.166-9.664
		c-0.394-0.726-1.148-1.181-1.974-1.181H30.584c-0.794,0-1.537,0.43-1.938,1.119l-5.461,9.461l-0.128,0.301
		c-0.104,0.277-0.155,0.556-0.15,0.805v15.52c0,1.08,0.771,2.005,1.825,2.196c0.744,0.148,2.216,0.567,3.025,1.222
		c1.266,1.022,1.599,2.38,1.654,3.341c0.101,1.677-0.538,3.393-1.714,4.596c-0.271,0.281-1.367,1.012-2.444,1.167l-0.202-0.008
		c-1.599-0.062-3.414-0.13-5.085-1.586c-0.238-0.209-5.817-5.188-2.664-12.85l7.766-20.974c0.249-0.831,1.767-4.292,2.187-4.885
		c3.85-6.264,10.498-9.999,17.779-9.999h9.818c9.379,0,17.649,6.336,20.182,15.617l7.662,20.316
		c3.159,7.647-2.411,12.554-2.769,12.854c-1.375,1.062-2.074,1.6-4.861,1.661l-0.228-0.018c-0.98-0.044-2.057-1.156-2.57-1.68
		C71.167,85.428,70.58,83.899,70.654,82.372z"/>
	<polygon fill="#FFC86B" points="39.345,10.313 39.345,9.161 61.556,6.386 59.984,10.313 	"/>
	<path fill="#FFC86B" d="M39.345,14.608h21.52l2.751,1.592l-4.23-0.01l-0.027,4.173c-0.144,5.491-4.552,9.79-10.035,9.79
		c-5.122,0-9.416-3.833-9.978-8.786V14.608z"/>
	<g>
		<path fill="#66124A" d="M49.94,88.632c-4.6,0-6.229-3.146-6.297-3.28c-0.318-0.639-0.06-1.408,0.576-1.727
			c0.638-0.317,1.407-0.062,1.725,0.574c0.033,0.062,1.041,1.86,3.996,1.86c1.333,0,3.857-0.534,3.857-2.568
			c0-2.037-2.524-2.571-3.857-2.571c-3.197,0-6.429-1.771-6.429-5.145c0-3.378,3.231-5.145,6.429-5.145
			c4.6,0,6.229,3.146,6.295,3.28c0.317,0.636,0.059,1.409-0.576,1.727c-0.629,0.314-1.395,0.065-1.719-0.56
			c-0.058-0.108-1.074-1.879-4-1.879c-1.335,0-3.858,0.539-3.858,2.576c0,2.034,2.523,2.572,3.858,2.572
			c3.195,0,6.43,1.767,6.43,5.144C56.37,86.865,53.136,88.632,49.94,88.632L49.94,88.632z M49.94,89.918
			c-0.712,0-1.286-0.574-1.286-1.286V70.631c0-0.712,0.574-1.286,1.286-1.286c0.709,0,1.285,0.574,1.285,1.286v18.001
			C51.226,89.344,50.649,89.918,49.94,89.918z"/>
	</g>
</g>
</svg>
