<?xml version="1.0" encoding="utf-8"?>
<!-- Generator: Adobe Illustrator 16.0.0, SVG Export Plug-In . SVG Version: 6.00 Build 0)  -->
<!DOCTYPE svg PUBLIC "-//W3C//DTD SVG 1.1//EN" "http://www.w3.org/Graphics/SVG/1.1/DTD/svg11.dtd">
<svg version="1.1" id="Isolation_Mode" xmlns="http://www.w3.org/2000/svg" xmlns:xlink="http://www.w3.org/1999/xlink" x="0px"
	 y="0px" width="100px" height="100px" viewBox="0 0 100 100" enable-background="new 0 0 100 100" xml:space="preserve">
<g>
	<path fill="#66124A" d="M94.834,5.617c-0.222-0.673-0.736-1.215-1.378-1.45l-0.005,0.011l-0.186-0.083
		C92.301,3.854,91.211,4.359,90.77,5.2c-1.181,2.003-2.327,3.171-3.63,3.683c-1.47,0.604-3.204,0.409-5.553-0.611L71.921,3.76
		c-2.483-1.075-4.983-1.208-7.258-0.35c-2.512,0.979-4.644,3.23-6.345,6.693c-3.461-1.231-7.054-1.859-10.699-1.859
		c-12.322,0-23.394,7.181-28.205,18.294L7.53,53.978c-3.251,7.509-3.307,15.852-0.161,23.497
		c3.144,7.637,9.115,13.673,16.816,17.009c4.083,1.769,8.382,2.668,12.768,2.668c12.316,0,23.374-7.157,28.173-18.23l7.73-17.858
		c0.125-0.169,0.198-0.339,0.241-0.439l3.949-9.121c1.207-2.785,1.975-5.809,2.305-9.157c0.053-0.404,0.104-0.844,0.131-1.287
		l0.006-0.704c0.012-0.237,0.025-0.469,0.031-0.713l-0.031-0.293c-0.004-0.146-0.006-0.297-0.006-0.44
		c-0.004-0.195-0.005-0.391-0.014-0.576l0.017-0.036l-0.017-0.251c-0.014-0.234-0.039-0.472-0.062-0.707
		c-0.024-0.247-0.049-0.491-0.068-0.814l-0.063-0.544c-0.036-0.319-0.068-0.625-0.125-0.932l-0.27-1.515
		c-0.093-0.384-0.169-0.801-0.247-1.222l-0.067-0.234c-0.104-0.319-0.186-0.632-0.27-0.968l-0.245-0.798l-0.01-0.003
		c-0.059-0.199-0.117-0.392-0.181-0.583l0.017-0.036l-0.269-0.739l-0.034-0.014c-0.077-0.192-0.147-0.374-0.214-0.56l0.027-0.065
		l-0.274-0.678l-0.061-0.026c-0.049-0.11-0.098-0.218-0.146-0.329c-0.051-0.117-0.103-0.234-0.153-0.352l0.005-0.013l-0.207-0.427
		c-0.125-0.261-0.249-0.52-0.386-0.779l0.022-0.049l-0.247-0.449c-0.25-0.449-0.476-0.841-0.665-1.11l-0.103-0.199
		c-0.117-0.179-0.231-0.371-0.346-0.561c-0.131-0.22-0.262-0.438-0.4-0.645l-0.207-0.273c-0.105-0.16-0.21-0.316-0.315-0.471
		l0.007-0.015l-0.346-0.479c-0.18-0.246-0.363-0.479-0.541-0.702l0.017-0.04l-0.934-1.118l0.036-0.084l-1.007-1.009l0.01-0.024
		l-0.507-0.505c-0.285-0.285-0.598-0.583-0.927-0.859l-0.108-0.236l-0.212-0.085c-0.313-0.307-0.651-0.619-0.984-0.885
		c-1.729-1.492-3.725-2.831-5.94-3.994c1.126-2.287,2.436-3.733,3.899-4.303c1.128-0.441,2.272-0.362,3.743,0.275l9.664,4.51
		c2.026,0.88,3.932,1.324,5.663,1.324h0.002c1.212,0,2.368-0.216,3.432-0.646c2.251-0.912,4.085-2.708,5.733-5.597
		C94.963,6.938,95.046,6.26,94.834,5.617z"/>
	<path fill="#7ACBF5" d="M68.056,60.871L61.008,77.14c-4.092,9.45-13.523,15.559-24.025,15.559c-3.781,0-7.489-0.775-11.023-2.31
		C12.349,84.492,5.93,68.959,11.645,55.76l7.048-16.272L68.056,60.871z"/>
	<path fill="#7ACBF5" d="M67.565,21.283c0.104,0.106,0.214,0.209,0.323,0.313l-0.129,0.342l0.712,0.303
		c0.096,0.116,0.196,0.231,0.303,0.352l-0.142,0.382l0.705,0.293l0.236,0.296L69.56,23.6l0.381,0.485
		c0.183,0.236,0.356,0.492,0.521,0.736l0.176,0.272c0.12,0.207,0.256,0.412,0.393,0.613c0.012,0.017,0.024,0.035,0.036,0.053
		l-0.009,0.02l0.263,0.449c0.098,0.166,0.205,0.329,0.311,0.489c0.114,0.176,0.23,0.349,0.336,0.566l0.215,0.437
		c0.063,0.12,0.124,0.241,0.183,0.358l-0.012,0.02l0.313,0.7l0.027,0.014c0.112,0.25,0.218,0.518,0.324,0.781l0.159,0.4
		c0.059,0.15,0.117,0.3,0.17,0.446l-0.014,0.033l0.261,0.71l0.031,0.013c0.062,0.156,0.119,0.313,0.169,0.476l-0.022,0.049
		l0.222,0.704l0.047,0.02c0.034,0.134,0.063,0.264,0.092,0.397l0.015,0.065l-0.014,0.029l0.201,0.749l0.02,0.01
		c0.029,0.12,0.055,0.244,0.084,0.368l0.019,0.088l-0.019,0.042l0.083,0.343c0.088,0.374,0.146,0.723,0.185,1.113l0.159,1.072
		l-0.264,0.704l0.358,0.159c0.005,0.202,0.007,0.4,0.008,0.603l0.041,1.189l-0.018,0.064l0.003,0.226
		c0.003,0.371,0.008,0.735,0,1.11c-0.168,3.075-0.876,6.079-2.107,8.923l-3.064,7.069L20.506,35.412l3.062-7.076
		c4.094-9.45,13.526-15.559,24.03-15.559c3.777,0,7.484,0.777,11.022,2.309c2.602,1.129,4.931,2.559,6.909,4.24l0.225,0.195
		c0.229,0.202,0.472,0.412,0.706,0.648l0.135,0.12c0.117,0.12,0.238,0.237,0.362,0.355l-0.109,0.306L67.565,21.283z"/>
	<path fill="#66124A" d="M57.187,22.041c0.284,0.61,0.305,1.295,0.054,1.871l-6.559,15.142c-0.354,0.818-1.212,1.365-2.136,1.365
		c-0.293,0-0.571-0.056-0.826-0.169c-0.532-0.225-0.969-0.688-1.197-1.265c-0.226-0.566-0.225-1.198,0.004-1.729l6.561-15.145
		c0.434-1,1.646-1.579,2.704-1.295C56.405,20.997,56.906,21.44,57.187,22.041z"/>
</g>
</svg>
